G04 #@! TF.GenerationSoftware,KiCad,Pcbnew,(5.99.0-208-ga1d3f3486)*
G04 #@! TF.CreationDate,2020-08-15T19:48:29+07:00*
G04 #@! TF.ProjectId,pheromone_ansi,70686572-6f6d-46f6-9e65-5f616e73692e,rev?*
G04 #@! TF.SameCoordinates,Original*
G04 #@! TF.FileFunction,Legend,Top*
G04 #@! TF.FilePolarity,Positive*
%FSLAX46Y46*%
G04 Gerber Fmt 4.6, Leading zero omitted, Abs format (unit mm)*
G04 Created by KiCad (PCBNEW (5.99.0-208-ga1d3f3486)) date 2020-08-15 19:48:29*
%MOMM*%
%LPD*%
G04 APERTURE LIST*
%ADD10C,0.150000*%
%ADD11C,0.010000*%
%ADD12C,0.120000*%
G04 APERTURE END LIST*
D10*
X78437500Y-122681250D02*
X78437500Y-123681250D01*
X78437500Y-109681250D02*
X77437500Y-109681250D01*
X77437500Y-123681250D02*
X78437500Y-123681250D01*
X78437500Y-109681250D02*
X78437500Y-110681250D01*
X64437500Y-110681250D02*
X64437500Y-109681250D01*
X64437500Y-123681250D02*
X65437500Y-123681250D01*
X65437500Y-109681250D02*
X64437500Y-109681250D01*
X64437500Y-123681250D02*
X64437500Y-122681250D01*
X76056250Y-103631250D02*
X76056250Y-104631250D01*
X76056250Y-90631250D02*
X75056250Y-90631250D01*
X75056250Y-104631250D02*
X76056250Y-104631250D01*
X76056250Y-90631250D02*
X76056250Y-91631250D01*
X62056250Y-91631250D02*
X62056250Y-90631250D01*
X62056250Y-104631250D02*
X63056250Y-104631250D01*
X63056250Y-90631250D02*
X62056250Y-90631250D01*
X62056250Y-104631250D02*
X62056250Y-103631250D01*
X73675000Y-84581250D02*
X73675000Y-85581250D01*
X73675000Y-71581250D02*
X72675000Y-71581250D01*
X72675000Y-85581250D02*
X73675000Y-85581250D01*
X73675000Y-71581250D02*
X73675000Y-72581250D01*
X59675000Y-72581250D02*
X59675000Y-71581250D01*
X59675000Y-85581250D02*
X60675000Y-85581250D01*
X60675000Y-71581250D02*
X59675000Y-71581250D01*
X59675000Y-85581250D02*
X59675000Y-84581250D01*
X190356250Y-141731250D02*
X190356250Y-142731250D01*
X190356250Y-128731250D02*
X189356250Y-128731250D01*
X189356250Y-142731250D02*
X190356250Y-142731250D01*
X190356250Y-128731250D02*
X190356250Y-129731250D01*
X176356250Y-129731250D02*
X176356250Y-128731250D01*
X176356250Y-142731250D02*
X177356250Y-142731250D01*
X177356250Y-128731250D02*
X176356250Y-128731250D01*
X176356250Y-142731250D02*
X176356250Y-141731250D01*
X118918750Y-141731250D02*
X118918750Y-142731250D01*
X118918750Y-128731250D02*
X117918750Y-128731250D01*
X117918750Y-142731250D02*
X118918750Y-142731250D01*
X118918750Y-128731250D02*
X118918750Y-129731250D01*
X104918750Y-129731250D02*
X104918750Y-128731250D01*
X104918750Y-142731250D02*
X105918750Y-142731250D01*
X105918750Y-128731250D02*
X104918750Y-128731250D01*
X104918750Y-142731250D02*
X104918750Y-141731250D01*
X95106250Y-141731250D02*
X95106250Y-142731250D01*
X95106250Y-128731250D02*
X94106250Y-128731250D01*
X94106250Y-142731250D02*
X95106250Y-142731250D01*
X95106250Y-128731250D02*
X95106250Y-129731250D01*
X81106250Y-129731250D02*
X81106250Y-128731250D01*
X81106250Y-142731250D02*
X82106250Y-142731250D01*
X82106250Y-128731250D02*
X81106250Y-128731250D01*
X81106250Y-142731250D02*
X81106250Y-141731250D01*
X71293750Y-141731250D02*
X71293750Y-142731250D01*
X71293750Y-128731250D02*
X70293750Y-128731250D01*
X70293750Y-142731250D02*
X71293750Y-142731250D01*
X71293750Y-128731250D02*
X71293750Y-129731250D01*
X57293750Y-129731250D02*
X57293750Y-128731250D01*
X57293750Y-142731250D02*
X58293750Y-142731250D01*
X58293750Y-128731250D02*
X57293750Y-128731250D01*
X57293750Y-142731250D02*
X57293750Y-141731250D01*
X323706250Y-103631250D02*
X323706250Y-104631250D01*
X323706250Y-90631250D02*
X322706250Y-90631250D01*
X322706250Y-104631250D02*
X323706250Y-104631250D01*
X323706250Y-90631250D02*
X323706250Y-91631250D01*
X309706250Y-91631250D02*
X309706250Y-90631250D01*
X309706250Y-104631250D02*
X310706250Y-104631250D01*
X310706250Y-90631250D02*
X309706250Y-90631250D01*
X309706250Y-104631250D02*
X309706250Y-103631250D01*
X68912500Y-65531250D02*
X68912500Y-66531250D01*
X68912500Y-52531250D02*
X67912500Y-52531250D01*
X67912500Y-66531250D02*
X68912500Y-66531250D01*
X68912500Y-52531250D02*
X68912500Y-53531250D01*
X54912500Y-53531250D02*
X54912500Y-52531250D01*
X54912500Y-66531250D02*
X55912500Y-66531250D01*
X55912500Y-52531250D02*
X54912500Y-52531250D01*
X54912500Y-66531250D02*
X54912500Y-65531250D01*
X335612500Y-141731250D02*
X335612500Y-142731250D01*
X335612500Y-128731250D02*
X334612500Y-128731250D01*
X334612500Y-142731250D02*
X335612500Y-142731250D01*
X335612500Y-128731250D02*
X335612500Y-129731250D01*
X321612500Y-129731250D02*
X321612500Y-128731250D01*
X321612500Y-142731250D02*
X322612500Y-142731250D01*
X322612500Y-128731250D02*
X321612500Y-128731250D01*
X321612500Y-142731250D02*
X321612500Y-141731250D01*
X316562500Y-141731250D02*
X316562500Y-142731250D01*
X316562500Y-128731250D02*
X315562500Y-128731250D01*
X315562500Y-142731250D02*
X316562500Y-142731250D01*
X316562500Y-128731250D02*
X316562500Y-129731250D01*
X302562500Y-129731250D02*
X302562500Y-128731250D01*
X302562500Y-142731250D02*
X303562500Y-142731250D01*
X303562500Y-128731250D02*
X302562500Y-128731250D01*
X302562500Y-142731250D02*
X302562500Y-141731250D01*
X297512500Y-141731250D02*
X297512500Y-142731250D01*
X297512500Y-128731250D02*
X296512500Y-128731250D01*
X296512500Y-142731250D02*
X297512500Y-142731250D01*
X297512500Y-128731250D02*
X297512500Y-129731250D01*
X283512500Y-129731250D02*
X283512500Y-128731250D01*
X283512500Y-142731250D02*
X284512500Y-142731250D01*
X284512500Y-128731250D02*
X283512500Y-128731250D01*
X283512500Y-142731250D02*
X283512500Y-141731250D01*
X335612500Y-122681250D02*
X335612500Y-123681250D01*
X335612500Y-109681250D02*
X334612500Y-109681250D01*
X334612500Y-123681250D02*
X335612500Y-123681250D01*
X335612500Y-109681250D02*
X335612500Y-110681250D01*
X321612500Y-110681250D02*
X321612500Y-109681250D01*
X321612500Y-123681250D02*
X322612500Y-123681250D01*
X322612500Y-109681250D02*
X321612500Y-109681250D01*
X321612500Y-123681250D02*
X321612500Y-122681250D01*
X316562500Y-122681250D02*
X316562500Y-123681250D01*
X316562500Y-109681250D02*
X315562500Y-109681250D01*
X315562500Y-123681250D02*
X316562500Y-123681250D01*
X316562500Y-109681250D02*
X316562500Y-110681250D01*
X302562500Y-110681250D02*
X302562500Y-109681250D01*
X302562500Y-123681250D02*
X303562500Y-123681250D01*
X303562500Y-109681250D02*
X302562500Y-109681250D01*
X302562500Y-123681250D02*
X302562500Y-122681250D01*
X297512500Y-122681250D02*
X297512500Y-123681250D01*
X297512500Y-109681250D02*
X296512500Y-109681250D01*
X296512500Y-123681250D02*
X297512500Y-123681250D01*
X297512500Y-109681250D02*
X297512500Y-110681250D01*
X283512500Y-110681250D02*
X283512500Y-109681250D01*
X283512500Y-123681250D02*
X284512500Y-123681250D01*
X284512500Y-109681250D02*
X283512500Y-109681250D01*
X283512500Y-123681250D02*
X283512500Y-122681250D01*
X278462500Y-122681250D02*
X278462500Y-123681250D01*
X278462500Y-109681250D02*
X277462500Y-109681250D01*
X277462500Y-123681250D02*
X278462500Y-123681250D01*
X278462500Y-109681250D02*
X278462500Y-110681250D01*
X264462500Y-110681250D02*
X264462500Y-109681250D01*
X264462500Y-123681250D02*
X265462500Y-123681250D01*
X265462500Y-109681250D02*
X264462500Y-109681250D01*
X264462500Y-123681250D02*
X264462500Y-122681250D01*
X259412500Y-122681250D02*
X259412500Y-123681250D01*
X259412500Y-109681250D02*
X258412500Y-109681250D01*
X258412500Y-123681250D02*
X259412500Y-123681250D01*
X259412500Y-109681250D02*
X259412500Y-110681250D01*
X245412500Y-110681250D02*
X245412500Y-109681250D01*
X245412500Y-123681250D02*
X246412500Y-123681250D01*
X246412500Y-109681250D02*
X245412500Y-109681250D01*
X245412500Y-123681250D02*
X245412500Y-122681250D01*
X240362500Y-122681250D02*
X240362500Y-123681250D01*
X240362500Y-109681250D02*
X239362500Y-109681250D01*
X239362500Y-123681250D02*
X240362500Y-123681250D01*
X240362500Y-109681250D02*
X240362500Y-110681250D01*
X226362500Y-110681250D02*
X226362500Y-109681250D01*
X226362500Y-123681250D02*
X227362500Y-123681250D01*
X227362500Y-109681250D02*
X226362500Y-109681250D01*
X226362500Y-123681250D02*
X226362500Y-122681250D01*
X221312500Y-122681250D02*
X221312500Y-123681250D01*
X221312500Y-109681250D02*
X220312500Y-109681250D01*
X220312500Y-123681250D02*
X221312500Y-123681250D01*
X221312500Y-109681250D02*
X221312500Y-110681250D01*
X207312500Y-110681250D02*
X207312500Y-109681250D01*
X207312500Y-123681250D02*
X208312500Y-123681250D01*
X208312500Y-109681250D02*
X207312500Y-109681250D01*
X207312500Y-123681250D02*
X207312500Y-122681250D01*
X202262500Y-122681250D02*
X202262500Y-123681250D01*
X202262500Y-109681250D02*
X201262500Y-109681250D01*
X201262500Y-123681250D02*
X202262500Y-123681250D01*
X202262500Y-109681250D02*
X202262500Y-110681250D01*
X188262500Y-110681250D02*
X188262500Y-109681250D01*
X188262500Y-123681250D02*
X189262500Y-123681250D01*
X189262500Y-109681250D02*
X188262500Y-109681250D01*
X188262500Y-123681250D02*
X188262500Y-122681250D01*
X183212500Y-122681250D02*
X183212500Y-123681250D01*
X183212500Y-109681250D02*
X182212500Y-109681250D01*
X182212500Y-123681250D02*
X183212500Y-123681250D01*
X183212500Y-109681250D02*
X183212500Y-110681250D01*
X169212500Y-110681250D02*
X169212500Y-109681250D01*
X169212500Y-123681250D02*
X170212500Y-123681250D01*
X170212500Y-109681250D02*
X169212500Y-109681250D01*
X169212500Y-123681250D02*
X169212500Y-122681250D01*
X164162500Y-122681250D02*
X164162500Y-123681250D01*
X164162500Y-109681250D02*
X163162500Y-109681250D01*
X163162500Y-123681250D02*
X164162500Y-123681250D01*
X164162500Y-109681250D02*
X164162500Y-110681250D01*
X150162500Y-110681250D02*
X150162500Y-109681250D01*
X150162500Y-123681250D02*
X151162500Y-123681250D01*
X151162500Y-109681250D02*
X150162500Y-109681250D01*
X150162500Y-123681250D02*
X150162500Y-122681250D01*
X145112500Y-122681250D02*
X145112500Y-123681250D01*
X145112500Y-109681250D02*
X144112500Y-109681250D01*
X144112500Y-123681250D02*
X145112500Y-123681250D01*
X145112500Y-109681250D02*
X145112500Y-110681250D01*
X131112500Y-110681250D02*
X131112500Y-109681250D01*
X131112500Y-123681250D02*
X132112500Y-123681250D01*
X132112500Y-109681250D02*
X131112500Y-109681250D01*
X131112500Y-123681250D02*
X131112500Y-122681250D01*
X126062500Y-122681250D02*
X126062500Y-123681250D01*
X126062500Y-109681250D02*
X125062500Y-109681250D01*
X125062500Y-123681250D02*
X126062500Y-123681250D01*
X126062500Y-109681250D02*
X126062500Y-110681250D01*
X112062500Y-110681250D02*
X112062500Y-109681250D01*
X112062500Y-123681250D02*
X113062500Y-123681250D01*
X113062500Y-109681250D02*
X112062500Y-109681250D01*
X112062500Y-123681250D02*
X112062500Y-122681250D01*
X106953750Y-122681250D02*
X106953750Y-123681250D01*
X106953750Y-109681250D02*
X105953750Y-109681250D01*
X105953750Y-123681250D02*
X106953750Y-123681250D01*
X106953750Y-109681250D02*
X106953750Y-110681250D01*
X92953750Y-110681250D02*
X92953750Y-109681250D01*
X92953750Y-123681250D02*
X93953750Y-123681250D01*
X93953750Y-109681250D02*
X92953750Y-109681250D01*
X92953750Y-123681250D02*
X92953750Y-122681250D01*
X330850000Y-84581250D02*
X330850000Y-85581250D01*
X330850000Y-71581250D02*
X329850000Y-71581250D01*
X329850000Y-85581250D02*
X330850000Y-85581250D01*
X330850000Y-71581250D02*
X330850000Y-72581250D01*
X316850000Y-72581250D02*
X316850000Y-71581250D01*
X316850000Y-85581250D02*
X317850000Y-85581250D01*
X317850000Y-71581250D02*
X316850000Y-71581250D01*
X316850000Y-85581250D02*
X316850000Y-84581250D01*
X292750000Y-103631250D02*
X292750000Y-104631250D01*
X292750000Y-90631250D02*
X291750000Y-90631250D01*
X291750000Y-104631250D02*
X292750000Y-104631250D01*
X292750000Y-90631250D02*
X292750000Y-91631250D01*
X278750000Y-91631250D02*
X278750000Y-90631250D01*
X278750000Y-104631250D02*
X279750000Y-104631250D01*
X279750000Y-90631250D02*
X278750000Y-90631250D01*
X278750000Y-104631250D02*
X278750000Y-103631250D01*
X273700000Y-103631250D02*
X273700000Y-104631250D01*
X273700000Y-90631250D02*
X272700000Y-90631250D01*
X272700000Y-104631250D02*
X273700000Y-104631250D01*
X273700000Y-90631250D02*
X273700000Y-91631250D01*
X259700000Y-91631250D02*
X259700000Y-90631250D01*
X259700000Y-104631250D02*
X260700000Y-104631250D01*
X260700000Y-90631250D02*
X259700000Y-90631250D01*
X259700000Y-104631250D02*
X259700000Y-103631250D01*
X254650000Y-103631250D02*
X254650000Y-104631250D01*
X254650000Y-90631250D02*
X253650000Y-90631250D01*
X253650000Y-104631250D02*
X254650000Y-104631250D01*
X254650000Y-90631250D02*
X254650000Y-91631250D01*
X240650000Y-91631250D02*
X240650000Y-90631250D01*
X240650000Y-104631250D02*
X241650000Y-104631250D01*
X241650000Y-90631250D02*
X240650000Y-90631250D01*
X240650000Y-104631250D02*
X240650000Y-103631250D01*
X235600000Y-103631250D02*
X235600000Y-104631250D01*
X235600000Y-90631250D02*
X234600000Y-90631250D01*
X234600000Y-104631250D02*
X235600000Y-104631250D01*
X235600000Y-90631250D02*
X235600000Y-91631250D01*
X221600000Y-91631250D02*
X221600000Y-90631250D01*
X221600000Y-104631250D02*
X222600000Y-104631250D01*
X222600000Y-90631250D02*
X221600000Y-90631250D01*
X221600000Y-104631250D02*
X221600000Y-103631250D01*
X216550000Y-103631250D02*
X216550000Y-104631250D01*
X216550000Y-90631250D02*
X215550000Y-90631250D01*
X215550000Y-104631250D02*
X216550000Y-104631250D01*
X216550000Y-90631250D02*
X216550000Y-91631250D01*
X202550000Y-91631250D02*
X202550000Y-90631250D01*
X202550000Y-104631250D02*
X203550000Y-104631250D01*
X203550000Y-90631250D02*
X202550000Y-90631250D01*
X202550000Y-104631250D02*
X202550000Y-103631250D01*
X197500000Y-103631250D02*
X197500000Y-104631250D01*
X197500000Y-90631250D02*
X196500000Y-90631250D01*
X196500000Y-104631250D02*
X197500000Y-104631250D01*
X197500000Y-90631250D02*
X197500000Y-91631250D01*
X183500000Y-91631250D02*
X183500000Y-90631250D01*
X183500000Y-104631250D02*
X184500000Y-104631250D01*
X184500000Y-90631250D02*
X183500000Y-90631250D01*
X183500000Y-104631250D02*
X183500000Y-103631250D01*
X178450000Y-103631250D02*
X178450000Y-104631250D01*
X178450000Y-90631250D02*
X177450000Y-90631250D01*
X177450000Y-104631250D02*
X178450000Y-104631250D01*
X178450000Y-90631250D02*
X178450000Y-91631250D01*
X164450000Y-91631250D02*
X164450000Y-90631250D01*
X164450000Y-104631250D02*
X165450000Y-104631250D01*
X165450000Y-90631250D02*
X164450000Y-90631250D01*
X164450000Y-104631250D02*
X164450000Y-103631250D01*
X159400000Y-103631250D02*
X159400000Y-104631250D01*
X159400000Y-90631250D02*
X158400000Y-90631250D01*
X158400000Y-104631250D02*
X159400000Y-104631250D01*
X159400000Y-90631250D02*
X159400000Y-91631250D01*
X145400000Y-91631250D02*
X145400000Y-90631250D01*
X145400000Y-104631250D02*
X146400000Y-104631250D01*
X146400000Y-90631250D02*
X145400000Y-90631250D01*
X145400000Y-104631250D02*
X145400000Y-103631250D01*
X140350000Y-103631250D02*
X140350000Y-104631250D01*
X140350000Y-90631250D02*
X139350000Y-90631250D01*
X139350000Y-104631250D02*
X140350000Y-104631250D01*
X140350000Y-90631250D02*
X140350000Y-91631250D01*
X126350000Y-91631250D02*
X126350000Y-90631250D01*
X126350000Y-104631250D02*
X127350000Y-104631250D01*
X127350000Y-90631250D02*
X126350000Y-90631250D01*
X126350000Y-104631250D02*
X126350000Y-103631250D01*
X121300000Y-103631250D02*
X121300000Y-104631250D01*
X121300000Y-90631250D02*
X120300000Y-90631250D01*
X120300000Y-104631250D02*
X121300000Y-104631250D01*
X121300000Y-90631250D02*
X121300000Y-91631250D01*
X107300000Y-91631250D02*
X107300000Y-90631250D01*
X107300000Y-104631250D02*
X108300000Y-104631250D01*
X108300000Y-90631250D02*
X107300000Y-90631250D01*
X107300000Y-104631250D02*
X107300000Y-103631250D01*
X102250000Y-103631250D02*
X102250000Y-104631250D01*
X102250000Y-90631250D02*
X101250000Y-90631250D01*
X101250000Y-104631250D02*
X102250000Y-104631250D01*
X102250000Y-90631250D02*
X102250000Y-91631250D01*
X88250000Y-91631250D02*
X88250000Y-90631250D01*
X88250000Y-104631250D02*
X89250000Y-104631250D01*
X89250000Y-90631250D02*
X88250000Y-90631250D01*
X88250000Y-104631250D02*
X88250000Y-103631250D01*
X307037500Y-84581250D02*
X307037500Y-85581250D01*
X307037500Y-71581250D02*
X306037500Y-71581250D01*
X306037500Y-85581250D02*
X307037500Y-85581250D01*
X307037500Y-71581250D02*
X307037500Y-72581250D01*
X293037500Y-72581250D02*
X293037500Y-71581250D01*
X293037500Y-85581250D02*
X294037500Y-85581250D01*
X294037500Y-71581250D02*
X293037500Y-71581250D01*
X293037500Y-85581250D02*
X293037500Y-84581250D01*
X287987500Y-84581250D02*
X287987500Y-85581250D01*
X287987500Y-71581250D02*
X286987500Y-71581250D01*
X286987500Y-85581250D02*
X287987500Y-85581250D01*
X287987500Y-71581250D02*
X287987500Y-72581250D01*
X273987500Y-72581250D02*
X273987500Y-71581250D01*
X273987500Y-85581250D02*
X274987500Y-85581250D01*
X274987500Y-71581250D02*
X273987500Y-71581250D01*
X273987500Y-85581250D02*
X273987500Y-84581250D01*
X268937500Y-84581250D02*
X268937500Y-85581250D01*
X268937500Y-71581250D02*
X267937500Y-71581250D01*
X267937500Y-85581250D02*
X268937500Y-85581250D01*
X268937500Y-71581250D02*
X268937500Y-72581250D01*
X254937500Y-72581250D02*
X254937500Y-71581250D01*
X254937500Y-85581250D02*
X255937500Y-85581250D01*
X255937500Y-71581250D02*
X254937500Y-71581250D01*
X254937500Y-85581250D02*
X254937500Y-84581250D01*
X249887500Y-84581250D02*
X249887500Y-85581250D01*
X249887500Y-71581250D02*
X248887500Y-71581250D01*
X248887500Y-85581250D02*
X249887500Y-85581250D01*
X249887500Y-71581250D02*
X249887500Y-72581250D01*
X235887500Y-72581250D02*
X235887500Y-71581250D01*
X235887500Y-85581250D02*
X236887500Y-85581250D01*
X236887500Y-71581250D02*
X235887500Y-71581250D01*
X235887500Y-85581250D02*
X235887500Y-84581250D01*
X230837500Y-84581250D02*
X230837500Y-85581250D01*
X230837500Y-71581250D02*
X229837500Y-71581250D01*
X229837500Y-85581250D02*
X230837500Y-85581250D01*
X230837500Y-71581250D02*
X230837500Y-72581250D01*
X216837500Y-72581250D02*
X216837500Y-71581250D01*
X216837500Y-85581250D02*
X217837500Y-85581250D01*
X217837500Y-71581250D02*
X216837500Y-71581250D01*
X216837500Y-85581250D02*
X216837500Y-84581250D01*
X211787500Y-84581250D02*
X211787500Y-85581250D01*
X211787500Y-71581250D02*
X210787500Y-71581250D01*
X210787500Y-85581250D02*
X211787500Y-85581250D01*
X211787500Y-71581250D02*
X211787500Y-72581250D01*
X197787500Y-72581250D02*
X197787500Y-71581250D01*
X197787500Y-85581250D02*
X198787500Y-85581250D01*
X198787500Y-71581250D02*
X197787500Y-71581250D01*
X197787500Y-85581250D02*
X197787500Y-84581250D01*
X192737500Y-84581250D02*
X192737500Y-85581250D01*
X192737500Y-71581250D02*
X191737500Y-71581250D01*
X191737500Y-85581250D02*
X192737500Y-85581250D01*
X192737500Y-71581250D02*
X192737500Y-72581250D01*
X178737500Y-72581250D02*
X178737500Y-71581250D01*
X178737500Y-85581250D02*
X179737500Y-85581250D01*
X179737500Y-71581250D02*
X178737500Y-71581250D01*
X178737500Y-85581250D02*
X178737500Y-84581250D01*
X173687500Y-84581250D02*
X173687500Y-85581250D01*
X173687500Y-71581250D02*
X172687500Y-71581250D01*
X172687500Y-85581250D02*
X173687500Y-85581250D01*
X173687500Y-71581250D02*
X173687500Y-72581250D01*
X159687500Y-72581250D02*
X159687500Y-71581250D01*
X159687500Y-85581250D02*
X160687500Y-85581250D01*
X160687500Y-71581250D02*
X159687500Y-71581250D01*
X159687500Y-85581250D02*
X159687500Y-84581250D01*
X154637500Y-84581250D02*
X154637500Y-85581250D01*
X154637500Y-71581250D02*
X153637500Y-71581250D01*
X153637500Y-85581250D02*
X154637500Y-85581250D01*
X154637500Y-71581250D02*
X154637500Y-72581250D01*
X140637500Y-72581250D02*
X140637500Y-71581250D01*
X140637500Y-85581250D02*
X141637500Y-85581250D01*
X141637500Y-71581250D02*
X140637500Y-71581250D01*
X140637500Y-85581250D02*
X140637500Y-84581250D01*
X135587500Y-84581250D02*
X135587500Y-85581250D01*
X135587500Y-71581250D02*
X134587500Y-71581250D01*
X134587500Y-85581250D02*
X135587500Y-85581250D01*
X135587500Y-71581250D02*
X135587500Y-72581250D01*
X121587500Y-72581250D02*
X121587500Y-71581250D01*
X121587500Y-85581250D02*
X122587500Y-85581250D01*
X122587500Y-71581250D02*
X121587500Y-71581250D01*
X121587500Y-85581250D02*
X121587500Y-84581250D01*
X116537500Y-84581250D02*
X116537500Y-85581250D01*
X116537500Y-71581250D02*
X115537500Y-71581250D01*
X115537500Y-85581250D02*
X116537500Y-85581250D01*
X116537500Y-71581250D02*
X116537500Y-72581250D01*
X102537500Y-72581250D02*
X102537500Y-71581250D01*
X102537500Y-85581250D02*
X103537500Y-85581250D01*
X103537500Y-71581250D02*
X102537500Y-71581250D01*
X102537500Y-85581250D02*
X102537500Y-84581250D01*
X97487500Y-84581250D02*
X97487500Y-85581250D01*
X97487500Y-71581250D02*
X96487500Y-71581250D01*
X96487500Y-85581250D02*
X97487500Y-85581250D01*
X97487500Y-71581250D02*
X97487500Y-72581250D01*
X83487500Y-72581250D02*
X83487500Y-71581250D01*
X83487500Y-85581250D02*
X84487500Y-85581250D01*
X84487500Y-71581250D02*
X83487500Y-71581250D01*
X83487500Y-85581250D02*
X83487500Y-84581250D01*
X335612500Y-65531250D02*
X335612500Y-66531250D01*
X335612500Y-52531250D02*
X334612500Y-52531250D01*
X334612500Y-66531250D02*
X335612500Y-66531250D01*
X335612500Y-52531250D02*
X335612500Y-53531250D01*
X321612500Y-53531250D02*
X321612500Y-52531250D01*
X321612500Y-66531250D02*
X322612500Y-66531250D01*
X322612500Y-52531250D02*
X321612500Y-52531250D01*
X321612500Y-66531250D02*
X321612500Y-65531250D01*
X316562500Y-65531250D02*
X316562500Y-66531250D01*
X316562500Y-52531250D02*
X315562500Y-52531250D01*
X315562500Y-66531250D02*
X316562500Y-66531250D01*
X316562500Y-52531250D02*
X316562500Y-53531250D01*
X302562500Y-53531250D02*
X302562500Y-52531250D01*
X302562500Y-66531250D02*
X303562500Y-66531250D01*
X303562500Y-52531250D02*
X302562500Y-52531250D01*
X302562500Y-66531250D02*
X302562500Y-65531250D01*
X297512500Y-65531250D02*
X297512500Y-66531250D01*
X297512500Y-52531250D02*
X296512500Y-52531250D01*
X296512500Y-66531250D02*
X297512500Y-66531250D01*
X297512500Y-52531250D02*
X297512500Y-53531250D01*
X283512500Y-53531250D02*
X283512500Y-52531250D01*
X283512500Y-66531250D02*
X284512500Y-66531250D01*
X284512500Y-52531250D02*
X283512500Y-52531250D01*
X283512500Y-66531250D02*
X283512500Y-65531250D01*
X278462500Y-65531250D02*
X278462500Y-66531250D01*
X278462500Y-52531250D02*
X277462500Y-52531250D01*
X277462500Y-66531250D02*
X278462500Y-66531250D01*
X278462500Y-52531250D02*
X278462500Y-53531250D01*
X264462500Y-53531250D02*
X264462500Y-52531250D01*
X264462500Y-66531250D02*
X265462500Y-66531250D01*
X265462500Y-52531250D02*
X264462500Y-52531250D01*
X264462500Y-66531250D02*
X264462500Y-65531250D01*
X259412500Y-65531250D02*
X259412500Y-66531250D01*
X259412500Y-52531250D02*
X258412500Y-52531250D01*
X258412500Y-66531250D02*
X259412500Y-66531250D01*
X259412500Y-52531250D02*
X259412500Y-53531250D01*
X245412500Y-53531250D02*
X245412500Y-52531250D01*
X245412500Y-66531250D02*
X246412500Y-66531250D01*
X246412500Y-52531250D02*
X245412500Y-52531250D01*
X245412500Y-66531250D02*
X245412500Y-65531250D01*
X240362500Y-65531250D02*
X240362500Y-66531250D01*
X240362500Y-52531250D02*
X239362500Y-52531250D01*
X239362500Y-66531250D02*
X240362500Y-66531250D01*
X240362500Y-52531250D02*
X240362500Y-53531250D01*
X226362500Y-53531250D02*
X226362500Y-52531250D01*
X226362500Y-66531250D02*
X227362500Y-66531250D01*
X227362500Y-52531250D02*
X226362500Y-52531250D01*
X226362500Y-66531250D02*
X226362500Y-65531250D01*
X221312500Y-65531250D02*
X221312500Y-66531250D01*
X221312500Y-52531250D02*
X220312500Y-52531250D01*
X220312500Y-66531250D02*
X221312500Y-66531250D01*
X221312500Y-52531250D02*
X221312500Y-53531250D01*
X207312500Y-53531250D02*
X207312500Y-52531250D01*
X207312500Y-66531250D02*
X208312500Y-66531250D01*
X208312500Y-52531250D02*
X207312500Y-52531250D01*
X207312500Y-66531250D02*
X207312500Y-65531250D01*
X202262500Y-65531250D02*
X202262500Y-66531250D01*
X202262500Y-52531250D02*
X201262500Y-52531250D01*
X201262500Y-66531250D02*
X202262500Y-66531250D01*
X202262500Y-52531250D02*
X202262500Y-53531250D01*
X188262500Y-53531250D02*
X188262500Y-52531250D01*
X188262500Y-66531250D02*
X189262500Y-66531250D01*
X189262500Y-52531250D02*
X188262500Y-52531250D01*
X188262500Y-66531250D02*
X188262500Y-65531250D01*
X183212500Y-65531250D02*
X183212500Y-66531250D01*
X183212500Y-52531250D02*
X182212500Y-52531250D01*
X182212500Y-66531250D02*
X183212500Y-66531250D01*
X183212500Y-52531250D02*
X183212500Y-53531250D01*
X169212500Y-53531250D02*
X169212500Y-52531250D01*
X169212500Y-66531250D02*
X170212500Y-66531250D01*
X170212500Y-52531250D02*
X169212500Y-52531250D01*
X169212500Y-66531250D02*
X169212500Y-65531250D01*
X164162500Y-65531250D02*
X164162500Y-66531250D01*
X164162500Y-52531250D02*
X163162500Y-52531250D01*
X163162500Y-66531250D02*
X164162500Y-66531250D01*
X164162500Y-52531250D02*
X164162500Y-53531250D01*
X150162500Y-53531250D02*
X150162500Y-52531250D01*
X150162500Y-66531250D02*
X151162500Y-66531250D01*
X151162500Y-52531250D02*
X150162500Y-52531250D01*
X150162500Y-66531250D02*
X150162500Y-65531250D01*
X145112500Y-65531250D02*
X145112500Y-66531250D01*
X145112500Y-52531250D02*
X144112500Y-52531250D01*
X144112500Y-66531250D02*
X145112500Y-66531250D01*
X145112500Y-52531250D02*
X145112500Y-53531250D01*
X131112500Y-53531250D02*
X131112500Y-52531250D01*
X131112500Y-66531250D02*
X132112500Y-66531250D01*
X132112500Y-52531250D02*
X131112500Y-52531250D01*
X131112500Y-66531250D02*
X131112500Y-65531250D01*
X126062500Y-65531250D02*
X126062500Y-66531250D01*
X126062500Y-52531250D02*
X125062500Y-52531250D01*
X125062500Y-66531250D02*
X126062500Y-66531250D01*
X126062500Y-52531250D02*
X126062500Y-53531250D01*
X112062500Y-53531250D02*
X112062500Y-52531250D01*
X112062500Y-66531250D02*
X113062500Y-66531250D01*
X113062500Y-52531250D02*
X112062500Y-52531250D01*
X112062500Y-66531250D02*
X112062500Y-65531250D01*
X107012500Y-65531250D02*
X107012500Y-66531250D01*
X107012500Y-52531250D02*
X106012500Y-52531250D01*
X106012500Y-66531250D02*
X107012500Y-66531250D01*
X107012500Y-52531250D02*
X107012500Y-53531250D01*
X93012500Y-53531250D02*
X93012500Y-52531250D01*
X93012500Y-66531250D02*
X94012500Y-66531250D01*
X94012500Y-52531250D02*
X93012500Y-52531250D01*
X93012500Y-66531250D02*
X93012500Y-65531250D01*
X87962500Y-65531250D02*
X87962500Y-66531250D01*
X87962500Y-52531250D02*
X86962500Y-52531250D01*
X86962500Y-66531250D02*
X87962500Y-66531250D01*
X87962500Y-52531250D02*
X87962500Y-53531250D01*
X73962500Y-53531250D02*
X73962500Y-52531250D01*
X73962500Y-66531250D02*
X74962500Y-66531250D01*
X74962500Y-52531250D02*
X73962500Y-52531250D01*
X73962500Y-66531250D02*
X73962500Y-65531250D01*
D11*
G36*
X45547822Y-143217822D02*
G01*
X42027029Y-143217822D01*
X42027029Y-142350198D01*
X45547822Y-142350198D01*
X45547822Y-143217822D01*
X45547822Y-143217822D01*
G37*
X45547822Y-143217822D02*
X42027029Y-143217822D01*
X42027029Y-142350198D01*
X45547822Y-142350198D01*
X45547822Y-143217822D01*
G36*
X42994529Y-140137599D02*
G01*
X43005749Y-140119808D01*
X43008246Y-140111570D01*
X43007300Y-140093590D01*
X43004427Y-140052892D01*
X42999813Y-139991819D01*
X42993642Y-139912713D01*
X42986102Y-139817914D01*
X42977379Y-139709767D01*
X42967657Y-139590612D01*
X42957124Y-139462791D01*
X42948635Y-139360635D01*
X42900604Y-138784674D01*
X43024195Y-138784674D01*
X43024727Y-138797104D01*
X43027231Y-138832110D01*
X43031504Y-138887215D01*
X43037347Y-138959943D01*
X43044557Y-139047814D01*
X43052934Y-139148351D01*
X43062277Y-139259077D01*
X43071242Y-139364205D01*
X43081398Y-139483483D01*
X43090858Y-139596080D01*
X43099404Y-139699305D01*
X43106821Y-139790473D01*
X43112892Y-139866895D01*
X43117399Y-139925883D01*
X43120127Y-139964749D01*
X43120884Y-139979844D01*
X43122065Y-139989238D01*
X43126744Y-139992966D01*
X43136724Y-139989471D01*
X43153810Y-139977199D01*
X43179804Y-139954594D01*
X43216510Y-139920100D01*
X43265733Y-139872162D01*
X43329274Y-139809224D01*
X43396695Y-139741968D01*
X43672399Y-139466477D01*
X43670467Y-139464406D01*
X43852710Y-139464406D01*
X43861016Y-139475780D01*
X43884267Y-139502563D01*
X43920135Y-139542292D01*
X43966287Y-139592507D01*
X44020394Y-139650746D01*
X44080126Y-139714547D01*
X44143152Y-139781449D01*
X44207142Y-139848990D01*
X44269764Y-139914710D01*
X44328690Y-139976146D01*
X44381588Y-140030837D01*
X44426128Y-140076322D01*
X44459980Y-140110138D01*
X44480812Y-140129826D01*
X44486494Y-140133837D01*
X44488366Y-140120891D01*
X44492254Y-140085134D01*
X44497943Y-140028804D01*
X44505219Y-139954140D01*
X44513869Y-139863380D01*
X44523678Y-139758762D01*
X44534434Y-139642526D01*
X44545921Y-139516908D01*
X44555093Y-139415618D01*
X44566826Y-139284279D01*
X44577665Y-139160552D01*
X44587430Y-139046681D01*
X44595937Y-138944911D01*
X44603005Y-138857487D01*
X44608451Y-138786653D01*
X44612092Y-138734653D01*
X44613747Y-138703732D01*
X44613558Y-138695703D01*
X44603666Y-138702854D01*
X44578476Y-138725841D01*
X44540190Y-138762439D01*
X44491011Y-138810422D01*
X44433139Y-138867566D01*
X44368778Y-138931647D01*
X44300129Y-139000438D01*
X44229395Y-139071716D01*
X44158778Y-139143255D01*
X44090480Y-139212830D01*
X44026704Y-139278217D01*
X43969650Y-139337191D01*
X43921522Y-139387527D01*
X43884522Y-139426999D01*
X43860852Y-139453383D01*
X43852710Y-139464406D01*
X43670467Y-139464406D01*
X43569591Y-139356295D01*
X43517232Y-139300377D01*
X43458465Y-139237948D01*
X43395615Y-139171443D01*
X43331005Y-139103298D01*
X43266958Y-139035948D01*
X43205797Y-138971828D01*
X43149847Y-138913372D01*
X43101430Y-138863018D01*
X43062870Y-138823198D01*
X43036491Y-138796350D01*
X43024616Y-138784908D01*
X43024195Y-138784674D01*
X42900604Y-138784674D01*
X42888599Y-138640726D01*
X42288062Y-138009158D01*
X41687525Y-137377589D01*
X41687966Y-137289315D01*
X41688408Y-137201040D01*
X41785417Y-137304666D01*
X41839709Y-137362463D01*
X41903808Y-137430368D01*
X41975984Y-137506572D01*
X42054508Y-137589269D01*
X42137651Y-137676653D01*
X42223681Y-137766915D01*
X42310870Y-137858250D01*
X42397487Y-137948849D01*
X42481803Y-138036907D01*
X42562088Y-138120615D01*
X42636613Y-138198167D01*
X42703646Y-138267757D01*
X42761459Y-138327576D01*
X42808321Y-138375818D01*
X42842504Y-138410676D01*
X42862276Y-138430343D01*
X42866610Y-138434116D01*
X42866908Y-138420992D01*
X42865269Y-138387389D01*
X42861977Y-138337880D01*
X42857318Y-138277037D01*
X42855318Y-138252732D01*
X42840423Y-138074951D01*
X42957045Y-138074951D01*
X42963066Y-138103243D01*
X42966137Y-138125618D01*
X42970452Y-138167717D01*
X42975512Y-138224178D01*
X42980819Y-138289635D01*
X42982656Y-138313862D01*
X42988073Y-138383421D01*
X42993541Y-138448018D01*
X42998512Y-138501548D01*
X43002439Y-138537910D01*
X43003325Y-138544509D01*
X43006666Y-138558056D01*
X43013899Y-138573914D01*
X43026560Y-138593861D01*
X43046189Y-138619673D01*
X43074322Y-138653129D01*
X43112498Y-138696007D01*
X43162254Y-138750083D01*
X43225129Y-138817136D01*
X43302659Y-138898943D01*
X43381749Y-138981950D01*
X43460436Y-139064094D01*
X43533888Y-139140169D01*
X43600276Y-139208325D01*
X43657773Y-139266712D01*
X43704549Y-139313481D01*
X43738776Y-139346782D01*
X43758627Y-139364767D01*
X43762860Y-139367442D01*
X43773997Y-139357741D01*
X43800029Y-139332441D01*
X43838430Y-139294082D01*
X43886672Y-139245200D01*
X43942230Y-139188334D01*
X43982408Y-139146906D01*
X44192169Y-138930000D01*
X43573663Y-138930000D01*
X43573663Y-138691089D01*
X44328119Y-138691089D01*
X44328119Y-138797542D01*
X44466435Y-138659654D01*
X44564553Y-138561840D01*
X44755643Y-138561840D01*
X44757471Y-138577270D01*
X44766723Y-138585867D01*
X44789050Y-138589613D01*
X44830105Y-138590489D01*
X44837376Y-138590495D01*
X44919109Y-138590495D01*
X44919109Y-138371172D01*
X44837376Y-138452179D01*
X44791270Y-138501428D01*
X44763694Y-138539159D01*
X44755643Y-138561840D01*
X44564553Y-138561840D01*
X44604752Y-138521766D01*
X44604752Y-138398952D01*
X44605137Y-138342450D01*
X44606900Y-138306505D01*
X44610950Y-138286530D01*
X44618199Y-138277937D01*
X44629130Y-138276139D01*
X44641288Y-138273498D01*
X44650273Y-138262912D01*
X44657174Y-138240381D01*
X44663076Y-138201909D01*
X44669065Y-138143498D01*
X44670987Y-138122104D01*
X44675148Y-138074951D01*
X42957045Y-138074951D01*
X42840423Y-138074951D01*
X42680891Y-138074951D01*
X42680891Y-137961782D01*
X42748686Y-137961782D01*
X42788338Y-137960696D01*
X42809884Y-137955454D01*
X42812520Y-137952334D01*
X42951384Y-137952334D01*
X42958692Y-137959462D01*
X42984007Y-137961662D01*
X43001092Y-137961782D01*
X43058119Y-137961782D01*
X43270779Y-137961782D01*
X44685302Y-137961782D01*
X44637458Y-137912786D01*
X44563150Y-137852324D01*
X44471184Y-137805691D01*
X44360002Y-137772249D01*
X44249529Y-137753753D01*
X44177227Y-137745122D01*
X44177227Y-137836040D01*
X43598812Y-137836040D01*
X43598812Y-137732893D01*
X43513935Y-137741496D01*
X43454632Y-137748756D01*
X43391449Y-137758379D01*
X43353614Y-137765252D01*
X43278168Y-137780407D01*
X43274474Y-137871095D01*
X43270779Y-137961782D01*
X43058119Y-137961782D01*
X43058119Y-137911485D01*
X43056456Y-137879976D01*
X43052303Y-137862463D01*
X43050629Y-137861188D01*
X43032013Y-137869254D01*
X43004817Y-137888820D01*
X42977552Y-137912944D01*
X42958733Y-137934682D01*
X42957057Y-137937508D01*
X42951384Y-137952334D01*
X42812520Y-137952334D01*
X42820338Y-137943081D01*
X42824558Y-137929604D01*
X42841781Y-137894627D01*
X42874862Y-137852579D01*
X42918107Y-137809356D01*
X42965826Y-137770854D01*
X42997170Y-137750801D01*
X43032877Y-137728851D01*
X43051181Y-137710411D01*
X43057612Y-137688668D01*
X43058106Y-137675718D01*
X43058106Y-137672575D01*
X43699406Y-137672575D01*
X43699406Y-137735446D01*
X44076633Y-137735446D01*
X44076633Y-137672575D01*
X43699406Y-137672575D01*
X43058106Y-137672575D01*
X43058119Y-137634852D01*
X43163952Y-137634852D01*
X43212645Y-137636029D01*
X43250595Y-137639165D01*
X43271692Y-137643671D01*
X43273977Y-137645495D01*
X43287359Y-137648295D01*
X43319926Y-137647148D01*
X43366084Y-137642393D01*
X43397624Y-137638003D01*
X43454812Y-137629378D01*
X43507114Y-137621591D01*
X43546418Y-137615847D01*
X43557945Y-137614215D01*
X43588063Y-137604888D01*
X43598812Y-137590272D01*
X43602080Y-137584320D01*
X43613770Y-137579778D01*
X43636712Y-137576470D01*
X43673735Y-137574215D01*
X43727668Y-137572834D01*
X43801340Y-137572150D01*
X43888020Y-137571980D01*
X43980529Y-137572077D01*
X44050906Y-137572530D01*
X44102164Y-137573590D01*
X44137320Y-137575503D01*
X44159389Y-137578519D01*
X44171385Y-137582885D01*
X44176324Y-137588849D01*
X44177227Y-137595784D01*
X44184921Y-137617795D01*
X44210121Y-137630321D01*
X44256009Y-137634788D01*
X44264264Y-137634852D01*
X44341973Y-137642868D01*
X44430233Y-137664936D01*
X44521085Y-137698084D01*
X44606570Y-137739339D01*
X44678726Y-137785731D01*
X44688072Y-137793082D01*
X44718533Y-137816998D01*
X44736572Y-137826576D01*
X44749169Y-137823480D01*
X44762100Y-137810704D01*
X44800293Y-137785678D01*
X44849998Y-137776071D01*
X44903524Y-137781067D01*
X44953178Y-137799851D01*
X44991267Y-137831606D01*
X44994025Y-137835297D01*
X45022526Y-137894575D01*
X45027828Y-137955934D01*
X45010518Y-138014427D01*
X44971180Y-138065104D01*
X44966370Y-138069289D01*
X44938440Y-138089167D01*
X44910102Y-138097921D01*
X44870263Y-138098553D01*
X44860311Y-138097992D01*
X44821332Y-138096562D01*
X44801254Y-138099839D01*
X44793985Y-138109728D01*
X44793240Y-138118961D01*
X44791716Y-138145744D01*
X44787935Y-138186025D01*
X44785218Y-138210124D01*
X44781277Y-138248401D01*
X44782916Y-138267996D01*
X44792421Y-138275158D01*
X44809351Y-138276139D01*
X44819392Y-138272901D01*
X44835590Y-138262420D01*
X44859145Y-138243548D01*
X44891257Y-138215135D01*
X44933128Y-138176035D01*
X44985957Y-138125097D01*
X45050945Y-138061173D01*
X45129291Y-137983114D01*
X45222197Y-137889772D01*
X45330863Y-137779998D01*
X45383231Y-137726952D01*
X45925049Y-137177767D01*
X45924430Y-137264848D01*
X45923811Y-137351931D01*
X45472086Y-137810891D01*
X45020361Y-138269852D01*
X45020032Y-138480471D01*
X45019703Y-138691089D01*
X44744610Y-138691089D01*
X44737522Y-138744530D01*
X44734838Y-138768888D01*
X44730313Y-138814759D01*
X44724191Y-138879405D01*
X44716712Y-138960091D01*
X44708119Y-139054081D01*
X44698654Y-139158637D01*
X44688558Y-139271025D01*
X44678074Y-139388507D01*
X44667444Y-139508348D01*
X44656909Y-139627811D01*
X44646713Y-139744159D01*
X44637095Y-139854657D01*
X44628300Y-139956569D01*
X44620568Y-140047158D01*
X44614142Y-140123687D01*
X44609263Y-140183421D01*
X44606175Y-140223624D01*
X44605117Y-140241559D01*
X44605118Y-140241644D01*
X44612827Y-140256035D01*
X44635981Y-140285748D01*
X44674895Y-140331131D01*
X44729884Y-140392529D01*
X44801264Y-140470288D01*
X44889349Y-140564754D01*
X44994454Y-140676272D01*
X45116895Y-140805188D01*
X45151310Y-140841287D01*
X45697137Y-141413416D01*
X45608881Y-141501436D01*
X45537485Y-141423758D01*
X45511366Y-141395686D01*
X45470566Y-141352274D01*
X45417777Y-141296366D01*
X45355691Y-141230808D01*
X45287000Y-141158441D01*
X45214396Y-141082112D01*
X45170960Y-141036524D01*
X45089416Y-140951119D01*
X45023504Y-140882710D01*
X44971544Y-140830053D01*
X44931855Y-140791905D01*
X44902757Y-140767020D01*
X44882569Y-140754156D01*
X44869610Y-140752068D01*
X44862200Y-140759513D01*
X44858658Y-140775246D01*
X44857303Y-140798023D01*
X44857121Y-140804239D01*
X44847703Y-140847061D01*
X44824497Y-140898819D01*
X44792136Y-140951328D01*
X44755252Y-140996403D01*
X44740493Y-141010328D01*
X44664767Y-141059047D01*
X44576308Y-141086306D01*
X44498100Y-141092773D01*
X44409468Y-141080576D01*
X44327612Y-141044813D01*
X44255164Y-140986722D01*
X44241797Y-140972262D01*
X44192918Y-140916733D01*
X43347326Y-140916733D01*
X43347326Y-141092773D01*
X43120990Y-141092773D01*
X43120990Y-141010531D01*
X43118150Y-140954386D01*
X43108607Y-140915416D01*
X43097009Y-140894219D01*
X43088723Y-140879052D01*
X43081627Y-140857062D01*
X43075252Y-140824987D01*
X43069128Y-140779569D01*
X43062784Y-140717548D01*
X43055750Y-140635662D01*
X43050934Y-140574746D01*
X43028839Y-140289343D01*
X42486435Y-140838805D01*
X42388363Y-140938228D01*
X42294216Y-141033815D01*
X42205715Y-141123810D01*
X42124580Y-141206457D01*
X42052531Y-141280001D01*
X41991288Y-141342684D01*
X41942573Y-141392752D01*
X41908104Y-141428448D01*
X41889621Y-141447995D01*
X41859257Y-141478944D01*
X41833929Y-141500530D01*
X41820305Y-141507723D01*
X41802905Y-141499297D01*
X41777540Y-141478245D01*
X41768942Y-141469671D01*
X41732486Y-141431620D01*
X41933198Y-141227658D01*
X41984404Y-141175699D01*
X42050431Y-141108820D01*
X42128382Y-141029950D01*
X42215362Y-140942014D01*
X42308474Y-140847941D01*
X42404821Y-140750658D01*
X42501508Y-140653093D01*
X42570866Y-140583145D01*
X42676297Y-140476550D01*
X42764871Y-140386307D01*
X42837719Y-140311192D01*
X42895977Y-140249986D01*
X42940775Y-140201466D01*
X42962979Y-140176129D01*
X43141276Y-140176129D01*
X43163599Y-140461555D01*
X43170331Y-140545219D01*
X43176843Y-140621727D01*
X43182766Y-140687081D01*
X43187732Y-140737281D01*
X43191371Y-140768329D01*
X43192542Y-140775273D01*
X43199162Y-140803565D01*
X44148636Y-140803565D01*
X44154974Y-140724606D01*
X44174110Y-140631315D01*
X44214154Y-140548791D01*
X44272582Y-140480038D01*
X44346871Y-140428063D01*
X44430252Y-140396863D01*
X44457302Y-140382228D01*
X44470844Y-140350819D01*
X44471128Y-140349434D01*
X44472753Y-140336174D01*
X44470744Y-140322595D01*
X44463142Y-140306181D01*
X44447984Y-140284411D01*
X44423312Y-140254767D01*
X44387164Y-140214732D01*
X44337580Y-140161785D01*
X44272599Y-140093409D01*
X44268401Y-140089005D01*
X44198507Y-140015611D01*
X44124200Y-139937437D01*
X44050586Y-139859864D01*
X43982771Y-139788275D01*
X43925860Y-139728051D01*
X43913168Y-139714587D01*
X43864513Y-139663820D01*
X43821291Y-139620375D01*
X43786605Y-139587241D01*
X43763556Y-139567405D01*
X43755818Y-139563046D01*
X43744278Y-139572170D01*
X43717290Y-139597200D01*
X43676979Y-139636052D01*
X43625471Y-139686643D01*
X43564891Y-139746888D01*
X43497364Y-139814704D01*
X43442174Y-139870565D01*
X43141276Y-140176129D01*
X42962979Y-140176129D01*
X42973249Y-140164411D01*
X42994529Y-140137599D01*
X42994529Y-140137599D01*
G37*
X42994529Y-140137599D02*
X43005749Y-140119808D01*
X43008246Y-140111570D01*
X43007300Y-140093590D01*
X43004427Y-140052892D01*
X42999813Y-139991819D01*
X42993642Y-139912713D01*
X42986102Y-139817914D01*
X42977379Y-139709767D01*
X42967657Y-139590612D01*
X42957124Y-139462791D01*
X42948635Y-139360635D01*
X42900604Y-138784674D01*
X43024195Y-138784674D01*
X43024727Y-138797104D01*
X43027231Y-138832110D01*
X43031504Y-138887215D01*
X43037347Y-138959943D01*
X43044557Y-139047814D01*
X43052934Y-139148351D01*
X43062277Y-139259077D01*
X43071242Y-139364205D01*
X43081398Y-139483483D01*
X43090858Y-139596080D01*
X43099404Y-139699305D01*
X43106821Y-139790473D01*
X43112892Y-139866895D01*
X43117399Y-139925883D01*
X43120127Y-139964749D01*
X43120884Y-139979844D01*
X43122065Y-139989238D01*
X43126744Y-139992966D01*
X43136724Y-139989471D01*
X43153810Y-139977199D01*
X43179804Y-139954594D01*
X43216510Y-139920100D01*
X43265733Y-139872162D01*
X43329274Y-139809224D01*
X43396695Y-139741968D01*
X43672399Y-139466477D01*
X43670467Y-139464406D01*
X43852710Y-139464406D01*
X43861016Y-139475780D01*
X43884267Y-139502563D01*
X43920135Y-139542292D01*
X43966287Y-139592507D01*
X44020394Y-139650746D01*
X44080126Y-139714547D01*
X44143152Y-139781449D01*
X44207142Y-139848990D01*
X44269764Y-139914710D01*
X44328690Y-139976146D01*
X44381588Y-140030837D01*
X44426128Y-140076322D01*
X44459980Y-140110138D01*
X44480812Y-140129826D01*
X44486494Y-140133837D01*
X44488366Y-140120891D01*
X44492254Y-140085134D01*
X44497943Y-140028804D01*
X44505219Y-139954140D01*
X44513869Y-139863380D01*
X44523678Y-139758762D01*
X44534434Y-139642526D01*
X44545921Y-139516908D01*
X44555093Y-139415618D01*
X44566826Y-139284279D01*
X44577665Y-139160552D01*
X44587430Y-139046681D01*
X44595937Y-138944911D01*
X44603005Y-138857487D01*
X44608451Y-138786653D01*
X44612092Y-138734653D01*
X44613747Y-138703732D01*
X44613558Y-138695703D01*
X44603666Y-138702854D01*
X44578476Y-138725841D01*
X44540190Y-138762439D01*
X44491011Y-138810422D01*
X44433139Y-138867566D01*
X44368778Y-138931647D01*
X44300129Y-139000438D01*
X44229395Y-139071716D01*
X44158778Y-139143255D01*
X44090480Y-139212830D01*
X44026704Y-139278217D01*
X43969650Y-139337191D01*
X43921522Y-139387527D01*
X43884522Y-139426999D01*
X43860852Y-139453383D01*
X43852710Y-139464406D01*
X43670467Y-139464406D01*
X43569591Y-139356295D01*
X43517232Y-139300377D01*
X43458465Y-139237948D01*
X43395615Y-139171443D01*
X43331005Y-139103298D01*
X43266958Y-139035948D01*
X43205797Y-138971828D01*
X43149847Y-138913372D01*
X43101430Y-138863018D01*
X43062870Y-138823198D01*
X43036491Y-138796350D01*
X43024616Y-138784908D01*
X43024195Y-138784674D01*
X42900604Y-138784674D01*
X42888599Y-138640726D01*
X42288062Y-138009158D01*
X41687525Y-137377589D01*
X41687966Y-137289315D01*
X41688408Y-137201040D01*
X41785417Y-137304666D01*
X41839709Y-137362463D01*
X41903808Y-137430368D01*
X41975984Y-137506572D01*
X42054508Y-137589269D01*
X42137651Y-137676653D01*
X42223681Y-137766915D01*
X42310870Y-137858250D01*
X42397487Y-137948849D01*
X42481803Y-138036907D01*
X42562088Y-138120615D01*
X42636613Y-138198167D01*
X42703646Y-138267757D01*
X42761459Y-138327576D01*
X42808321Y-138375818D01*
X42842504Y-138410676D01*
X42862276Y-138430343D01*
X42866610Y-138434116D01*
X42866908Y-138420992D01*
X42865269Y-138387389D01*
X42861977Y-138337880D01*
X42857318Y-138277037D01*
X42855318Y-138252732D01*
X42840423Y-138074951D01*
X42957045Y-138074951D01*
X42963066Y-138103243D01*
X42966137Y-138125618D01*
X42970452Y-138167717D01*
X42975512Y-138224178D01*
X42980819Y-138289635D01*
X42982656Y-138313862D01*
X42988073Y-138383421D01*
X42993541Y-138448018D01*
X42998512Y-138501548D01*
X43002439Y-138537910D01*
X43003325Y-138544509D01*
X43006666Y-138558056D01*
X43013899Y-138573914D01*
X43026560Y-138593861D01*
X43046189Y-138619673D01*
X43074322Y-138653129D01*
X43112498Y-138696007D01*
X43162254Y-138750083D01*
X43225129Y-138817136D01*
X43302659Y-138898943D01*
X43381749Y-138981950D01*
X43460436Y-139064094D01*
X43533888Y-139140169D01*
X43600276Y-139208325D01*
X43657773Y-139266712D01*
X43704549Y-139313481D01*
X43738776Y-139346782D01*
X43758627Y-139364767D01*
X43762860Y-139367442D01*
X43773997Y-139357741D01*
X43800029Y-139332441D01*
X43838430Y-139294082D01*
X43886672Y-139245200D01*
X43942230Y-139188334D01*
X43982408Y-139146906D01*
X44192169Y-138930000D01*
X43573663Y-138930000D01*
X43573663Y-138691089D01*
X44328119Y-138691089D01*
X44328119Y-138797542D01*
X44466435Y-138659654D01*
X44564553Y-138561840D01*
X44755643Y-138561840D01*
X44757471Y-138577270D01*
X44766723Y-138585867D01*
X44789050Y-138589613D01*
X44830105Y-138590489D01*
X44837376Y-138590495D01*
X44919109Y-138590495D01*
X44919109Y-138371172D01*
X44837376Y-138452179D01*
X44791270Y-138501428D01*
X44763694Y-138539159D01*
X44755643Y-138561840D01*
X44564553Y-138561840D01*
X44604752Y-138521766D01*
X44604752Y-138398952D01*
X44605137Y-138342450D01*
X44606900Y-138306505D01*
X44610950Y-138286530D01*
X44618199Y-138277937D01*
X44629130Y-138276139D01*
X44641288Y-138273498D01*
X44650273Y-138262912D01*
X44657174Y-138240381D01*
X44663076Y-138201909D01*
X44669065Y-138143498D01*
X44670987Y-138122104D01*
X44675148Y-138074951D01*
X42957045Y-138074951D01*
X42840423Y-138074951D01*
X42680891Y-138074951D01*
X42680891Y-137961782D01*
X42748686Y-137961782D01*
X42788338Y-137960696D01*
X42809884Y-137955454D01*
X42812520Y-137952334D01*
X42951384Y-137952334D01*
X42958692Y-137959462D01*
X42984007Y-137961662D01*
X43001092Y-137961782D01*
X43058119Y-137961782D01*
X43270779Y-137961782D01*
X44685302Y-137961782D01*
X44637458Y-137912786D01*
X44563150Y-137852324D01*
X44471184Y-137805691D01*
X44360002Y-137772249D01*
X44249529Y-137753753D01*
X44177227Y-137745122D01*
X44177227Y-137836040D01*
X43598812Y-137836040D01*
X43598812Y-137732893D01*
X43513935Y-137741496D01*
X43454632Y-137748756D01*
X43391449Y-137758379D01*
X43353614Y-137765252D01*
X43278168Y-137780407D01*
X43274474Y-137871095D01*
X43270779Y-137961782D01*
X43058119Y-137961782D01*
X43058119Y-137911485D01*
X43056456Y-137879976D01*
X43052303Y-137862463D01*
X43050629Y-137861188D01*
X43032013Y-137869254D01*
X43004817Y-137888820D01*
X42977552Y-137912944D01*
X42958733Y-137934682D01*
X42957057Y-137937508D01*
X42951384Y-137952334D01*
X42812520Y-137952334D01*
X42820338Y-137943081D01*
X42824558Y-137929604D01*
X42841781Y-137894627D01*
X42874862Y-137852579D01*
X42918107Y-137809356D01*
X42965826Y-137770854D01*
X42997170Y-137750801D01*
X43032877Y-137728851D01*
X43051181Y-137710411D01*
X43057612Y-137688668D01*
X43058106Y-137675718D01*
X43058106Y-137672575D01*
X43699406Y-137672575D01*
X43699406Y-137735446D01*
X44076633Y-137735446D01*
X44076633Y-137672575D01*
X43699406Y-137672575D01*
X43058106Y-137672575D01*
X43058119Y-137634852D01*
X43163952Y-137634852D01*
X43212645Y-137636029D01*
X43250595Y-137639165D01*
X43271692Y-137643671D01*
X43273977Y-137645495D01*
X43287359Y-137648295D01*
X43319926Y-137647148D01*
X43366084Y-137642393D01*
X43397624Y-137638003D01*
X43454812Y-137629378D01*
X43507114Y-137621591D01*
X43546418Y-137615847D01*
X43557945Y-137614215D01*
X43588063Y-137604888D01*
X43598812Y-137590272D01*
X43602080Y-137584320D01*
X43613770Y-137579778D01*
X43636712Y-137576470D01*
X43673735Y-137574215D01*
X43727668Y-137572834D01*
X43801340Y-137572150D01*
X43888020Y-137571980D01*
X43980529Y-137572077D01*
X44050906Y-137572530D01*
X44102164Y-137573590D01*
X44137320Y-137575503D01*
X44159389Y-137578519D01*
X44171385Y-137582885D01*
X44176324Y-137588849D01*
X44177227Y-137595784D01*
X44184921Y-137617795D01*
X44210121Y-137630321D01*
X44256009Y-137634788D01*
X44264264Y-137634852D01*
X44341973Y-137642868D01*
X44430233Y-137664936D01*
X44521085Y-137698084D01*
X44606570Y-137739339D01*
X44678726Y-137785731D01*
X44688072Y-137793082D01*
X44718533Y-137816998D01*
X44736572Y-137826576D01*
X44749169Y-137823480D01*
X44762100Y-137810704D01*
X44800293Y-137785678D01*
X44849998Y-137776071D01*
X44903524Y-137781067D01*
X44953178Y-137799851D01*
X44991267Y-137831606D01*
X44994025Y-137835297D01*
X45022526Y-137894575D01*
X45027828Y-137955934D01*
X45010518Y-138014427D01*
X44971180Y-138065104D01*
X44966370Y-138069289D01*
X44938440Y-138089167D01*
X44910102Y-138097921D01*
X44870263Y-138098553D01*
X44860311Y-138097992D01*
X44821332Y-138096562D01*
X44801254Y-138099839D01*
X44793985Y-138109728D01*
X44793240Y-138118961D01*
X44791716Y-138145744D01*
X44787935Y-138186025D01*
X44785218Y-138210124D01*
X44781277Y-138248401D01*
X44782916Y-138267996D01*
X44792421Y-138275158D01*
X44809351Y-138276139D01*
X44819392Y-138272901D01*
X44835590Y-138262420D01*
X44859145Y-138243548D01*
X44891257Y-138215135D01*
X44933128Y-138176035D01*
X44985957Y-138125097D01*
X45050945Y-138061173D01*
X45129291Y-137983114D01*
X45222197Y-137889772D01*
X45330863Y-137779998D01*
X45383231Y-137726952D01*
X45925049Y-137177767D01*
X45924430Y-137264848D01*
X45923811Y-137351931D01*
X45472086Y-137810891D01*
X45020361Y-138269852D01*
X45020032Y-138480471D01*
X45019703Y-138691089D01*
X44744610Y-138691089D01*
X44737522Y-138744530D01*
X44734838Y-138768888D01*
X44730313Y-138814759D01*
X44724191Y-138879405D01*
X44716712Y-138960091D01*
X44708119Y-139054081D01*
X44698654Y-139158637D01*
X44688558Y-139271025D01*
X44678074Y-139388507D01*
X44667444Y-139508348D01*
X44656909Y-139627811D01*
X44646713Y-139744159D01*
X44637095Y-139854657D01*
X44628300Y-139956569D01*
X44620568Y-140047158D01*
X44614142Y-140123687D01*
X44609263Y-140183421D01*
X44606175Y-140223624D01*
X44605117Y-140241559D01*
X44605118Y-140241644D01*
X44612827Y-140256035D01*
X44635981Y-140285748D01*
X44674895Y-140331131D01*
X44729884Y-140392529D01*
X44801264Y-140470288D01*
X44889349Y-140564754D01*
X44994454Y-140676272D01*
X45116895Y-140805188D01*
X45151310Y-140841287D01*
X45697137Y-141413416D01*
X45608881Y-141501436D01*
X45537485Y-141423758D01*
X45511366Y-141395686D01*
X45470566Y-141352274D01*
X45417777Y-141296366D01*
X45355691Y-141230808D01*
X45287000Y-141158441D01*
X45214396Y-141082112D01*
X45170960Y-141036524D01*
X45089416Y-140951119D01*
X45023504Y-140882710D01*
X44971544Y-140830053D01*
X44931855Y-140791905D01*
X44902757Y-140767020D01*
X44882569Y-140754156D01*
X44869610Y-140752068D01*
X44862200Y-140759513D01*
X44858658Y-140775246D01*
X44857303Y-140798023D01*
X44857121Y-140804239D01*
X44847703Y-140847061D01*
X44824497Y-140898819D01*
X44792136Y-140951328D01*
X44755252Y-140996403D01*
X44740493Y-141010328D01*
X44664767Y-141059047D01*
X44576308Y-141086306D01*
X44498100Y-141092773D01*
X44409468Y-141080576D01*
X44327612Y-141044813D01*
X44255164Y-140986722D01*
X44241797Y-140972262D01*
X44192918Y-140916733D01*
X43347326Y-140916733D01*
X43347326Y-141092773D01*
X43120990Y-141092773D01*
X43120990Y-141010531D01*
X43118150Y-140954386D01*
X43108607Y-140915416D01*
X43097009Y-140894219D01*
X43088723Y-140879052D01*
X43081627Y-140857062D01*
X43075252Y-140824987D01*
X43069128Y-140779569D01*
X43062784Y-140717548D01*
X43055750Y-140635662D01*
X43050934Y-140574746D01*
X43028839Y-140289343D01*
X42486435Y-140838805D01*
X42388363Y-140938228D01*
X42294216Y-141033815D01*
X42205715Y-141123810D01*
X42124580Y-141206457D01*
X42052531Y-141280001D01*
X41991288Y-141342684D01*
X41942573Y-141392752D01*
X41908104Y-141428448D01*
X41889621Y-141447995D01*
X41859257Y-141478944D01*
X41833929Y-141500530D01*
X41820305Y-141507723D01*
X41802905Y-141499297D01*
X41777540Y-141478245D01*
X41768942Y-141469671D01*
X41732486Y-141431620D01*
X41933198Y-141227658D01*
X41984404Y-141175699D01*
X42050431Y-141108820D01*
X42128382Y-141029950D01*
X42215362Y-140942014D01*
X42308474Y-140847941D01*
X42404821Y-140750658D01*
X42501508Y-140653093D01*
X42570866Y-140583145D01*
X42676297Y-140476550D01*
X42764871Y-140386307D01*
X42837719Y-140311192D01*
X42895977Y-140249986D01*
X42940775Y-140201466D01*
X42962979Y-140176129D01*
X43141276Y-140176129D01*
X43163599Y-140461555D01*
X43170331Y-140545219D01*
X43176843Y-140621727D01*
X43182766Y-140687081D01*
X43187732Y-140737281D01*
X43191371Y-140768329D01*
X43192542Y-140775273D01*
X43199162Y-140803565D01*
X44148636Y-140803565D01*
X44154974Y-140724606D01*
X44174110Y-140631315D01*
X44214154Y-140548791D01*
X44272582Y-140480038D01*
X44346871Y-140428063D01*
X44430252Y-140396863D01*
X44457302Y-140382228D01*
X44470844Y-140350819D01*
X44471128Y-140349434D01*
X44472753Y-140336174D01*
X44470744Y-140322595D01*
X44463142Y-140306181D01*
X44447984Y-140284411D01*
X44423312Y-140254767D01*
X44387164Y-140214732D01*
X44337580Y-140161785D01*
X44272599Y-140093409D01*
X44268401Y-140089005D01*
X44198507Y-140015611D01*
X44124200Y-139937437D01*
X44050586Y-139859864D01*
X43982771Y-139788275D01*
X43925860Y-139728051D01*
X43913168Y-139714587D01*
X43864513Y-139663820D01*
X43821291Y-139620375D01*
X43786605Y-139587241D01*
X43763556Y-139567405D01*
X43755818Y-139563046D01*
X43744278Y-139572170D01*
X43717290Y-139597200D01*
X43676979Y-139636052D01*
X43625471Y-139686643D01*
X43564891Y-139746888D01*
X43497364Y-139814704D01*
X43442174Y-139870565D01*
X43141276Y-140176129D01*
X42962979Y-140176129D01*
X42973249Y-140164411D01*
X42994529Y-140137599D01*
D12*
X42901250Y-117150000D02*
X42901250Y-116150000D01*
X42401250Y-116650000D02*
X43401250Y-116650000D01*
X38801250Y-123850000D02*
X39101250Y-124150000D01*
X38801250Y-124450000D02*
X38801250Y-123850000D01*
X39101250Y-124150000D02*
X38801250Y-124450000D01*
X45901250Y-116650000D02*
G75*
G03X45901250Y-116650000I-3000000J0D01*
G01*
X47600000Y-52200000D02*
X47600000Y-97200000D01*
X38300000Y-52200000D02*
X47600000Y-52200000D01*
X38300000Y-97200000D02*
X38300000Y-52200000D01*
X47600000Y-97200000D02*
X38300000Y-97200000D01*
D10*
X70223214Y-125388630D02*
X70223214Y-124388630D01*
X70794642Y-125388630D02*
X70366071Y-124817202D01*
X70794642Y-124388630D02*
X70223214Y-124960059D01*
X71651785Y-124721964D02*
X71651785Y-125388630D01*
X71413690Y-124341011D02*
X71175595Y-125055297D01*
X71794642Y-125055297D01*
X72080357Y-124388630D02*
X72699404Y-124388630D01*
X72366071Y-124769583D01*
X72508928Y-124769583D01*
X72604166Y-124817202D01*
X72651785Y-124864821D01*
X72699404Y-124960059D01*
X72699404Y-125198154D01*
X72651785Y-125293392D01*
X72604166Y-125341011D01*
X72508928Y-125388630D01*
X72223214Y-125388630D01*
X72127976Y-125341011D01*
X72080357Y-125293392D01*
X67841964Y-106338630D02*
X67841964Y-105338630D01*
X68413392Y-106338630D02*
X67984821Y-105767202D01*
X68413392Y-105338630D02*
X67841964Y-105910059D01*
X68794345Y-105433869D02*
X68841964Y-105386250D01*
X68937202Y-105338630D01*
X69175297Y-105338630D01*
X69270535Y-105386250D01*
X69318154Y-105433869D01*
X69365773Y-105529107D01*
X69365773Y-105624345D01*
X69318154Y-105767202D01*
X68746726Y-106338630D01*
X69365773Y-106338630D01*
X69841964Y-106338630D02*
X70032440Y-106338630D01*
X70127678Y-106291011D01*
X70175297Y-106243392D01*
X70270535Y-106100535D01*
X70318154Y-105910059D01*
X70318154Y-105529107D01*
X70270535Y-105433869D01*
X70222916Y-105386250D01*
X70127678Y-105338630D01*
X69937202Y-105338630D01*
X69841964Y-105386250D01*
X69794345Y-105433869D01*
X69746726Y-105529107D01*
X69746726Y-105767202D01*
X69794345Y-105862440D01*
X69841964Y-105910059D01*
X69937202Y-105957678D01*
X70127678Y-105957678D01*
X70222916Y-105910059D01*
X70270535Y-105862440D01*
X70318154Y-105767202D01*
X65460714Y-87288630D02*
X65460714Y-86288630D01*
X66032142Y-87288630D02*
X65603571Y-86717202D01*
X66032142Y-86288630D02*
X65460714Y-86860059D01*
X66984523Y-87288630D02*
X66413095Y-87288630D01*
X66698809Y-87288630D02*
X66698809Y-86288630D01*
X66603571Y-86431488D01*
X66508333Y-86526726D01*
X66413095Y-86574345D01*
X67841666Y-86288630D02*
X67651190Y-86288630D01*
X67555952Y-86336250D01*
X67508333Y-86383869D01*
X67413095Y-86526726D01*
X67365476Y-86717202D01*
X67365476Y-87098154D01*
X67413095Y-87193392D01*
X67460714Y-87241011D01*
X67555952Y-87288630D01*
X67746428Y-87288630D01*
X67841666Y-87241011D01*
X67889285Y-87193392D01*
X67936904Y-87098154D01*
X67936904Y-86860059D01*
X67889285Y-86764821D01*
X67841666Y-86717202D01*
X67746428Y-86669583D01*
X67555952Y-86669583D01*
X67460714Y-86717202D01*
X67413095Y-86764821D01*
X67365476Y-86860059D01*
X182062916Y-144077630D02*
X181729583Y-143601440D01*
X181491488Y-144077630D02*
X181491488Y-143077630D01*
X181872440Y-143077630D01*
X181967678Y-143125250D01*
X182015297Y-143172869D01*
X182062916Y-143268107D01*
X182062916Y-143410964D01*
X182015297Y-143506202D01*
X181967678Y-143553821D01*
X181872440Y-143601440D01*
X181491488Y-143601440D01*
X182491488Y-143553821D02*
X182824821Y-143553821D01*
X182967678Y-144077630D02*
X182491488Y-144077630D01*
X182491488Y-143077630D01*
X182967678Y-143077630D01*
X183729583Y-143553821D02*
X183396250Y-143553821D01*
X183396250Y-144077630D02*
X183396250Y-143077630D01*
X183872440Y-143077630D01*
X184396250Y-143077630D02*
X184396250Y-143315726D01*
X184158154Y-143220488D02*
X184396250Y-143315726D01*
X184634345Y-143220488D01*
X184253392Y-143506202D02*
X184396250Y-143315726D01*
X184539107Y-143506202D01*
X185158154Y-143077630D02*
X185158154Y-143315726D01*
X184920059Y-143220488D02*
X185158154Y-143315726D01*
X185396250Y-143220488D01*
X185015297Y-143506202D02*
X185158154Y-143315726D01*
X185301011Y-143506202D01*
X182141964Y-144438630D02*
X182141964Y-143438630D01*
X182713392Y-144438630D02*
X182284821Y-143867202D01*
X182713392Y-143438630D02*
X182141964Y-144010059D01*
X183570535Y-143438630D02*
X183380059Y-143438630D01*
X183284821Y-143486250D01*
X183237202Y-143533869D01*
X183141964Y-143676726D01*
X183094345Y-143867202D01*
X183094345Y-144248154D01*
X183141964Y-144343392D01*
X183189583Y-144391011D01*
X183284821Y-144438630D01*
X183475297Y-144438630D01*
X183570535Y-144391011D01*
X183618154Y-144343392D01*
X183665773Y-144248154D01*
X183665773Y-144010059D01*
X183618154Y-143914821D01*
X183570535Y-143867202D01*
X183475297Y-143819583D01*
X183284821Y-143819583D01*
X183189583Y-143867202D01*
X183141964Y-143914821D01*
X183094345Y-144010059D01*
X184284821Y-143438630D02*
X184380059Y-143438630D01*
X184475297Y-143486250D01*
X184522916Y-143533869D01*
X184570535Y-143629107D01*
X184618154Y-143819583D01*
X184618154Y-144057678D01*
X184570535Y-144248154D01*
X184522916Y-144343392D01*
X184475297Y-144391011D01*
X184380059Y-144438630D01*
X184284821Y-144438630D01*
X184189583Y-144391011D01*
X184141964Y-144343392D01*
X184094345Y-144248154D01*
X184046726Y-144057678D01*
X184046726Y-143819583D01*
X184094345Y-143629107D01*
X184141964Y-143533869D01*
X184189583Y-143486250D01*
X184284821Y-143438630D01*
X110704464Y-144438630D02*
X110704464Y-143438630D01*
X111275892Y-144438630D02*
X110847321Y-143867202D01*
X111275892Y-143438630D02*
X110704464Y-144010059D01*
X112180654Y-143438630D02*
X111704464Y-143438630D01*
X111656845Y-143914821D01*
X111704464Y-143867202D01*
X111799702Y-143819583D01*
X112037797Y-143819583D01*
X112133035Y-143867202D01*
X112180654Y-143914821D01*
X112228273Y-144010059D01*
X112228273Y-144248154D01*
X112180654Y-144343392D01*
X112133035Y-144391011D01*
X112037797Y-144438630D01*
X111799702Y-144438630D01*
X111704464Y-144391011D01*
X111656845Y-144343392D01*
X112704464Y-144438630D02*
X112894940Y-144438630D01*
X112990178Y-144391011D01*
X113037797Y-144343392D01*
X113133035Y-144200535D01*
X113180654Y-144010059D01*
X113180654Y-143629107D01*
X113133035Y-143533869D01*
X113085416Y-143486250D01*
X112990178Y-143438630D01*
X112799702Y-143438630D01*
X112704464Y-143486250D01*
X112656845Y-143533869D01*
X112609226Y-143629107D01*
X112609226Y-143867202D01*
X112656845Y-143962440D01*
X112704464Y-144010059D01*
X112799702Y-144057678D01*
X112990178Y-144057678D01*
X113085416Y-144010059D01*
X113133035Y-143962440D01*
X113180654Y-143867202D01*
X86891964Y-144438630D02*
X86891964Y-143438630D01*
X87463392Y-144438630D02*
X87034821Y-143867202D01*
X87463392Y-143438630D02*
X86891964Y-144010059D01*
X88368154Y-143438630D02*
X87891964Y-143438630D01*
X87844345Y-143914821D01*
X87891964Y-143867202D01*
X87987202Y-143819583D01*
X88225297Y-143819583D01*
X88320535Y-143867202D01*
X88368154Y-143914821D01*
X88415773Y-144010059D01*
X88415773Y-144248154D01*
X88368154Y-144343392D01*
X88320535Y-144391011D01*
X88225297Y-144438630D01*
X87987202Y-144438630D01*
X87891964Y-144391011D01*
X87844345Y-144343392D01*
X88987202Y-143867202D02*
X88891964Y-143819583D01*
X88844345Y-143771964D01*
X88796726Y-143676726D01*
X88796726Y-143629107D01*
X88844345Y-143533869D01*
X88891964Y-143486250D01*
X88987202Y-143438630D01*
X89177678Y-143438630D01*
X89272916Y-143486250D01*
X89320535Y-143533869D01*
X89368154Y-143629107D01*
X89368154Y-143676726D01*
X89320535Y-143771964D01*
X89272916Y-143819583D01*
X89177678Y-143867202D01*
X88987202Y-143867202D01*
X88891964Y-143914821D01*
X88844345Y-143962440D01*
X88796726Y-144057678D01*
X88796726Y-144248154D01*
X88844345Y-144343392D01*
X88891964Y-144391011D01*
X88987202Y-144438630D01*
X89177678Y-144438630D01*
X89272916Y-144391011D01*
X89320535Y-144343392D01*
X89368154Y-144248154D01*
X89368154Y-144057678D01*
X89320535Y-143962440D01*
X89272916Y-143914821D01*
X89177678Y-143867202D01*
X63079464Y-144438630D02*
X63079464Y-143438630D01*
X63650892Y-144438630D02*
X63222321Y-143867202D01*
X63650892Y-143438630D02*
X63079464Y-144010059D01*
X64555654Y-143438630D02*
X64079464Y-143438630D01*
X64031845Y-143914821D01*
X64079464Y-143867202D01*
X64174702Y-143819583D01*
X64412797Y-143819583D01*
X64508035Y-143867202D01*
X64555654Y-143914821D01*
X64603273Y-144010059D01*
X64603273Y-144248154D01*
X64555654Y-144343392D01*
X64508035Y-144391011D01*
X64412797Y-144438630D01*
X64174702Y-144438630D01*
X64079464Y-144391011D01*
X64031845Y-144343392D01*
X64936607Y-143438630D02*
X65603273Y-143438630D01*
X65174702Y-144438630D01*
X315491964Y-106338630D02*
X315491964Y-105338630D01*
X316063392Y-106338630D02*
X315634821Y-105767202D01*
X316063392Y-105338630D02*
X315491964Y-105910059D01*
X316920535Y-105671964D02*
X316920535Y-106338630D01*
X316682440Y-105291011D02*
X316444345Y-106005297D01*
X317063392Y-106005297D01*
X317396726Y-105433869D02*
X317444345Y-105386250D01*
X317539583Y-105338630D01*
X317777678Y-105338630D01*
X317872916Y-105386250D01*
X317920535Y-105433869D01*
X317968154Y-105529107D01*
X317968154Y-105624345D01*
X317920535Y-105767202D01*
X317349107Y-106338630D01*
X317968154Y-106338630D01*
X61174404Y-68238630D02*
X61174404Y-67238630D01*
X61745833Y-68238630D02*
X61317261Y-67667202D01*
X61745833Y-67238630D02*
X61174404Y-67810059D01*
X62698214Y-68238630D02*
X62126785Y-68238630D01*
X62412500Y-68238630D02*
X62412500Y-67238630D01*
X62317261Y-67381488D01*
X62222023Y-67476726D01*
X62126785Y-67524345D01*
X327398214Y-144438630D02*
X327398214Y-143438630D01*
X327969642Y-144438630D02*
X327541071Y-143867202D01*
X327969642Y-143438630D02*
X327398214Y-144010059D01*
X328826785Y-143438630D02*
X328636309Y-143438630D01*
X328541071Y-143486250D01*
X328493452Y-143533869D01*
X328398214Y-143676726D01*
X328350595Y-143867202D01*
X328350595Y-144248154D01*
X328398214Y-144343392D01*
X328445833Y-144391011D01*
X328541071Y-144438630D01*
X328731547Y-144438630D01*
X328826785Y-144391011D01*
X328874404Y-144343392D01*
X328922023Y-144248154D01*
X328922023Y-144010059D01*
X328874404Y-143914821D01*
X328826785Y-143867202D01*
X328731547Y-143819583D01*
X328541071Y-143819583D01*
X328445833Y-143867202D01*
X328398214Y-143914821D01*
X328350595Y-144010059D01*
X329255357Y-143438630D02*
X329874404Y-143438630D01*
X329541071Y-143819583D01*
X329683928Y-143819583D01*
X329779166Y-143867202D01*
X329826785Y-143914821D01*
X329874404Y-144010059D01*
X329874404Y-144248154D01*
X329826785Y-144343392D01*
X329779166Y-144391011D01*
X329683928Y-144438630D01*
X329398214Y-144438630D01*
X329302976Y-144391011D01*
X329255357Y-144343392D01*
X308348214Y-144438630D02*
X308348214Y-143438630D01*
X308919642Y-144438630D02*
X308491071Y-143867202D01*
X308919642Y-143438630D02*
X308348214Y-144010059D01*
X309776785Y-143438630D02*
X309586309Y-143438630D01*
X309491071Y-143486250D01*
X309443452Y-143533869D01*
X309348214Y-143676726D01*
X309300595Y-143867202D01*
X309300595Y-144248154D01*
X309348214Y-144343392D01*
X309395833Y-144391011D01*
X309491071Y-144438630D01*
X309681547Y-144438630D01*
X309776785Y-144391011D01*
X309824404Y-144343392D01*
X309872023Y-144248154D01*
X309872023Y-144010059D01*
X309824404Y-143914821D01*
X309776785Y-143867202D01*
X309681547Y-143819583D01*
X309491071Y-143819583D01*
X309395833Y-143867202D01*
X309348214Y-143914821D01*
X309300595Y-144010059D01*
X310252976Y-143533869D02*
X310300595Y-143486250D01*
X310395833Y-143438630D01*
X310633928Y-143438630D01*
X310729166Y-143486250D01*
X310776785Y-143533869D01*
X310824404Y-143629107D01*
X310824404Y-143724345D01*
X310776785Y-143867202D01*
X310205357Y-144438630D01*
X310824404Y-144438630D01*
X289298214Y-144438630D02*
X289298214Y-143438630D01*
X289869642Y-144438630D02*
X289441071Y-143867202D01*
X289869642Y-143438630D02*
X289298214Y-144010059D01*
X290726785Y-143438630D02*
X290536309Y-143438630D01*
X290441071Y-143486250D01*
X290393452Y-143533869D01*
X290298214Y-143676726D01*
X290250595Y-143867202D01*
X290250595Y-144248154D01*
X290298214Y-144343392D01*
X290345833Y-144391011D01*
X290441071Y-144438630D01*
X290631547Y-144438630D01*
X290726785Y-144391011D01*
X290774404Y-144343392D01*
X290822023Y-144248154D01*
X290822023Y-144010059D01*
X290774404Y-143914821D01*
X290726785Y-143867202D01*
X290631547Y-143819583D01*
X290441071Y-143819583D01*
X290345833Y-143867202D01*
X290298214Y-143914821D01*
X290250595Y-144010059D01*
X291774404Y-144438630D02*
X291202976Y-144438630D01*
X291488690Y-144438630D02*
X291488690Y-143438630D01*
X291393452Y-143581488D01*
X291298214Y-143676726D01*
X291202976Y-143724345D01*
X327398214Y-125388630D02*
X327398214Y-124388630D01*
X327969642Y-125388630D02*
X327541071Y-124817202D01*
X327969642Y-124388630D02*
X327398214Y-124960059D01*
X328874404Y-124388630D02*
X328398214Y-124388630D01*
X328350595Y-124864821D01*
X328398214Y-124817202D01*
X328493452Y-124769583D01*
X328731547Y-124769583D01*
X328826785Y-124817202D01*
X328874404Y-124864821D01*
X328922023Y-124960059D01*
X328922023Y-125198154D01*
X328874404Y-125293392D01*
X328826785Y-125341011D01*
X328731547Y-125388630D01*
X328493452Y-125388630D01*
X328398214Y-125341011D01*
X328350595Y-125293392D01*
X329779166Y-124388630D02*
X329588690Y-124388630D01*
X329493452Y-124436250D01*
X329445833Y-124483869D01*
X329350595Y-124626726D01*
X329302976Y-124817202D01*
X329302976Y-125198154D01*
X329350595Y-125293392D01*
X329398214Y-125341011D01*
X329493452Y-125388630D01*
X329683928Y-125388630D01*
X329779166Y-125341011D01*
X329826785Y-125293392D01*
X329874404Y-125198154D01*
X329874404Y-124960059D01*
X329826785Y-124864821D01*
X329779166Y-124817202D01*
X329683928Y-124769583D01*
X329493452Y-124769583D01*
X329398214Y-124817202D01*
X329350595Y-124864821D01*
X329302976Y-124960059D01*
X308348214Y-125388630D02*
X308348214Y-124388630D01*
X308919642Y-125388630D02*
X308491071Y-124817202D01*
X308919642Y-124388630D02*
X308348214Y-124960059D01*
X309824404Y-124388630D02*
X309348214Y-124388630D01*
X309300595Y-124864821D01*
X309348214Y-124817202D01*
X309443452Y-124769583D01*
X309681547Y-124769583D01*
X309776785Y-124817202D01*
X309824404Y-124864821D01*
X309872023Y-124960059D01*
X309872023Y-125198154D01*
X309824404Y-125293392D01*
X309776785Y-125341011D01*
X309681547Y-125388630D01*
X309443452Y-125388630D01*
X309348214Y-125341011D01*
X309300595Y-125293392D01*
X310776785Y-124388630D02*
X310300595Y-124388630D01*
X310252976Y-124864821D01*
X310300595Y-124817202D01*
X310395833Y-124769583D01*
X310633928Y-124769583D01*
X310729166Y-124817202D01*
X310776785Y-124864821D01*
X310824404Y-124960059D01*
X310824404Y-125198154D01*
X310776785Y-125293392D01*
X310729166Y-125341011D01*
X310633928Y-125388630D01*
X310395833Y-125388630D01*
X310300595Y-125341011D01*
X310252976Y-125293392D01*
X289298214Y-125388630D02*
X289298214Y-124388630D01*
X289869642Y-125388630D02*
X289441071Y-124817202D01*
X289869642Y-124388630D02*
X289298214Y-124960059D01*
X290774404Y-124388630D02*
X290298214Y-124388630D01*
X290250595Y-124864821D01*
X290298214Y-124817202D01*
X290393452Y-124769583D01*
X290631547Y-124769583D01*
X290726785Y-124817202D01*
X290774404Y-124864821D01*
X290822023Y-124960059D01*
X290822023Y-125198154D01*
X290774404Y-125293392D01*
X290726785Y-125341011D01*
X290631547Y-125388630D01*
X290393452Y-125388630D01*
X290298214Y-125341011D01*
X290250595Y-125293392D01*
X291679166Y-124721964D02*
X291679166Y-125388630D01*
X291441071Y-124341011D02*
X291202976Y-125055297D01*
X291822023Y-125055297D01*
X270248214Y-125388630D02*
X270248214Y-124388630D01*
X270819642Y-125388630D02*
X270391071Y-124817202D01*
X270819642Y-124388630D02*
X270248214Y-124960059D01*
X271724404Y-124388630D02*
X271248214Y-124388630D01*
X271200595Y-124864821D01*
X271248214Y-124817202D01*
X271343452Y-124769583D01*
X271581547Y-124769583D01*
X271676785Y-124817202D01*
X271724404Y-124864821D01*
X271772023Y-124960059D01*
X271772023Y-125198154D01*
X271724404Y-125293392D01*
X271676785Y-125341011D01*
X271581547Y-125388630D01*
X271343452Y-125388630D01*
X271248214Y-125341011D01*
X271200595Y-125293392D01*
X272105357Y-124388630D02*
X272724404Y-124388630D01*
X272391071Y-124769583D01*
X272533928Y-124769583D01*
X272629166Y-124817202D01*
X272676785Y-124864821D01*
X272724404Y-124960059D01*
X272724404Y-125198154D01*
X272676785Y-125293392D01*
X272629166Y-125341011D01*
X272533928Y-125388630D01*
X272248214Y-125388630D01*
X272152976Y-125341011D01*
X272105357Y-125293392D01*
X251198214Y-125388630D02*
X251198214Y-124388630D01*
X251769642Y-125388630D02*
X251341071Y-124817202D01*
X251769642Y-124388630D02*
X251198214Y-124960059D01*
X252674404Y-124388630D02*
X252198214Y-124388630D01*
X252150595Y-124864821D01*
X252198214Y-124817202D01*
X252293452Y-124769583D01*
X252531547Y-124769583D01*
X252626785Y-124817202D01*
X252674404Y-124864821D01*
X252722023Y-124960059D01*
X252722023Y-125198154D01*
X252674404Y-125293392D01*
X252626785Y-125341011D01*
X252531547Y-125388630D01*
X252293452Y-125388630D01*
X252198214Y-125341011D01*
X252150595Y-125293392D01*
X253102976Y-124483869D02*
X253150595Y-124436250D01*
X253245833Y-124388630D01*
X253483928Y-124388630D01*
X253579166Y-124436250D01*
X253626785Y-124483869D01*
X253674404Y-124579107D01*
X253674404Y-124674345D01*
X253626785Y-124817202D01*
X253055357Y-125388630D01*
X253674404Y-125388630D01*
X232148214Y-125388630D02*
X232148214Y-124388630D01*
X232719642Y-125388630D02*
X232291071Y-124817202D01*
X232719642Y-124388630D02*
X232148214Y-124960059D01*
X233624404Y-124388630D02*
X233148214Y-124388630D01*
X233100595Y-124864821D01*
X233148214Y-124817202D01*
X233243452Y-124769583D01*
X233481547Y-124769583D01*
X233576785Y-124817202D01*
X233624404Y-124864821D01*
X233672023Y-124960059D01*
X233672023Y-125198154D01*
X233624404Y-125293392D01*
X233576785Y-125341011D01*
X233481547Y-125388630D01*
X233243452Y-125388630D01*
X233148214Y-125341011D01*
X233100595Y-125293392D01*
X234624404Y-125388630D02*
X234052976Y-125388630D01*
X234338690Y-125388630D02*
X234338690Y-124388630D01*
X234243452Y-124531488D01*
X234148214Y-124626726D01*
X234052976Y-124674345D01*
X213098214Y-125388630D02*
X213098214Y-124388630D01*
X213669642Y-125388630D02*
X213241071Y-124817202D01*
X213669642Y-124388630D02*
X213098214Y-124960059D01*
X214574404Y-124388630D02*
X214098214Y-124388630D01*
X214050595Y-124864821D01*
X214098214Y-124817202D01*
X214193452Y-124769583D01*
X214431547Y-124769583D01*
X214526785Y-124817202D01*
X214574404Y-124864821D01*
X214622023Y-124960059D01*
X214622023Y-125198154D01*
X214574404Y-125293392D01*
X214526785Y-125341011D01*
X214431547Y-125388630D01*
X214193452Y-125388630D01*
X214098214Y-125341011D01*
X214050595Y-125293392D01*
X215241071Y-124388630D02*
X215336309Y-124388630D01*
X215431547Y-124436250D01*
X215479166Y-124483869D01*
X215526785Y-124579107D01*
X215574404Y-124769583D01*
X215574404Y-125007678D01*
X215526785Y-125198154D01*
X215479166Y-125293392D01*
X215431547Y-125341011D01*
X215336309Y-125388630D01*
X215241071Y-125388630D01*
X215145833Y-125341011D01*
X215098214Y-125293392D01*
X215050595Y-125198154D01*
X215002976Y-125007678D01*
X215002976Y-124769583D01*
X215050595Y-124579107D01*
X215098214Y-124483869D01*
X215145833Y-124436250D01*
X215241071Y-124388630D01*
X194048214Y-125388630D02*
X194048214Y-124388630D01*
X194619642Y-125388630D02*
X194191071Y-124817202D01*
X194619642Y-124388630D02*
X194048214Y-124960059D01*
X195476785Y-124721964D02*
X195476785Y-125388630D01*
X195238690Y-124341011D02*
X195000595Y-125055297D01*
X195619642Y-125055297D01*
X196048214Y-125388630D02*
X196238690Y-125388630D01*
X196333928Y-125341011D01*
X196381547Y-125293392D01*
X196476785Y-125150535D01*
X196524404Y-124960059D01*
X196524404Y-124579107D01*
X196476785Y-124483869D01*
X196429166Y-124436250D01*
X196333928Y-124388630D01*
X196143452Y-124388630D01*
X196048214Y-124436250D01*
X196000595Y-124483869D01*
X195952976Y-124579107D01*
X195952976Y-124817202D01*
X196000595Y-124912440D01*
X196048214Y-124960059D01*
X196143452Y-125007678D01*
X196333928Y-125007678D01*
X196429166Y-124960059D01*
X196476785Y-124912440D01*
X196524404Y-124817202D01*
X174998214Y-125388630D02*
X174998214Y-124388630D01*
X175569642Y-125388630D02*
X175141071Y-124817202D01*
X175569642Y-124388630D02*
X174998214Y-124960059D01*
X176426785Y-124721964D02*
X176426785Y-125388630D01*
X176188690Y-124341011D02*
X175950595Y-125055297D01*
X176569642Y-125055297D01*
X177093452Y-124817202D02*
X176998214Y-124769583D01*
X176950595Y-124721964D01*
X176902976Y-124626726D01*
X176902976Y-124579107D01*
X176950595Y-124483869D01*
X176998214Y-124436250D01*
X177093452Y-124388630D01*
X177283928Y-124388630D01*
X177379166Y-124436250D01*
X177426785Y-124483869D01*
X177474404Y-124579107D01*
X177474404Y-124626726D01*
X177426785Y-124721964D01*
X177379166Y-124769583D01*
X177283928Y-124817202D01*
X177093452Y-124817202D01*
X176998214Y-124864821D01*
X176950595Y-124912440D01*
X176902976Y-125007678D01*
X176902976Y-125198154D01*
X176950595Y-125293392D01*
X176998214Y-125341011D01*
X177093452Y-125388630D01*
X177283928Y-125388630D01*
X177379166Y-125341011D01*
X177426785Y-125293392D01*
X177474404Y-125198154D01*
X177474404Y-125007678D01*
X177426785Y-124912440D01*
X177379166Y-124864821D01*
X177283928Y-124817202D01*
X155948214Y-125388630D02*
X155948214Y-124388630D01*
X156519642Y-125388630D02*
X156091071Y-124817202D01*
X156519642Y-124388630D02*
X155948214Y-124960059D01*
X157376785Y-124721964D02*
X157376785Y-125388630D01*
X157138690Y-124341011D02*
X156900595Y-125055297D01*
X157519642Y-125055297D01*
X157805357Y-124388630D02*
X158472023Y-124388630D01*
X158043452Y-125388630D01*
X136898214Y-125388630D02*
X136898214Y-124388630D01*
X137469642Y-125388630D02*
X137041071Y-124817202D01*
X137469642Y-124388630D02*
X136898214Y-124960059D01*
X138326785Y-124721964D02*
X138326785Y-125388630D01*
X138088690Y-124341011D02*
X137850595Y-125055297D01*
X138469642Y-125055297D01*
X139279166Y-124388630D02*
X139088690Y-124388630D01*
X138993452Y-124436250D01*
X138945833Y-124483869D01*
X138850595Y-124626726D01*
X138802976Y-124817202D01*
X138802976Y-125198154D01*
X138850595Y-125293392D01*
X138898214Y-125341011D01*
X138993452Y-125388630D01*
X139183928Y-125388630D01*
X139279166Y-125341011D01*
X139326785Y-125293392D01*
X139374404Y-125198154D01*
X139374404Y-124960059D01*
X139326785Y-124864821D01*
X139279166Y-124817202D01*
X139183928Y-124769583D01*
X138993452Y-124769583D01*
X138898214Y-124817202D01*
X138850595Y-124864821D01*
X138802976Y-124960059D01*
X117848214Y-125388630D02*
X117848214Y-124388630D01*
X118419642Y-125388630D02*
X117991071Y-124817202D01*
X118419642Y-124388630D02*
X117848214Y-124960059D01*
X119276785Y-124721964D02*
X119276785Y-125388630D01*
X119038690Y-124341011D02*
X118800595Y-125055297D01*
X119419642Y-125055297D01*
X120276785Y-124388630D02*
X119800595Y-124388630D01*
X119752976Y-124864821D01*
X119800595Y-124817202D01*
X119895833Y-124769583D01*
X120133928Y-124769583D01*
X120229166Y-124817202D01*
X120276785Y-124864821D01*
X120324404Y-124960059D01*
X120324404Y-125198154D01*
X120276785Y-125293392D01*
X120229166Y-125341011D01*
X120133928Y-125388630D01*
X119895833Y-125388630D01*
X119800595Y-125341011D01*
X119752976Y-125293392D01*
X98739464Y-125388630D02*
X98739464Y-124388630D01*
X99310892Y-125388630D02*
X98882321Y-124817202D01*
X99310892Y-124388630D02*
X98739464Y-124960059D01*
X100168035Y-124721964D02*
X100168035Y-125388630D01*
X99929940Y-124341011D02*
X99691845Y-125055297D01*
X100310892Y-125055297D01*
X101120416Y-124721964D02*
X101120416Y-125388630D01*
X100882321Y-124341011D02*
X100644226Y-125055297D01*
X101263273Y-125055297D01*
X322635714Y-87288630D02*
X322635714Y-86288630D01*
X323207142Y-87288630D02*
X322778571Y-86717202D01*
X323207142Y-86288630D02*
X322635714Y-86860059D01*
X324064285Y-86621964D02*
X324064285Y-87288630D01*
X323826190Y-86241011D02*
X323588095Y-86955297D01*
X324207142Y-86955297D01*
X325111904Y-87288630D02*
X324540476Y-87288630D01*
X324826190Y-87288630D02*
X324826190Y-86288630D01*
X324730952Y-86431488D01*
X324635714Y-86526726D01*
X324540476Y-86574345D01*
X284535714Y-106338630D02*
X284535714Y-105338630D01*
X285107142Y-106338630D02*
X284678571Y-105767202D01*
X285107142Y-105338630D02*
X284535714Y-105910059D01*
X285964285Y-105671964D02*
X285964285Y-106338630D01*
X285726190Y-105291011D02*
X285488095Y-106005297D01*
X286107142Y-106005297D01*
X286678571Y-105338630D02*
X286773809Y-105338630D01*
X286869047Y-105386250D01*
X286916666Y-105433869D01*
X286964285Y-105529107D01*
X287011904Y-105719583D01*
X287011904Y-105957678D01*
X286964285Y-106148154D01*
X286916666Y-106243392D01*
X286869047Y-106291011D01*
X286773809Y-106338630D01*
X286678571Y-106338630D01*
X286583333Y-106291011D01*
X286535714Y-106243392D01*
X286488095Y-106148154D01*
X286440476Y-105957678D01*
X286440476Y-105719583D01*
X286488095Y-105529107D01*
X286535714Y-105433869D01*
X286583333Y-105386250D01*
X286678571Y-105338630D01*
X265485714Y-106338630D02*
X265485714Y-105338630D01*
X266057142Y-106338630D02*
X265628571Y-105767202D01*
X266057142Y-105338630D02*
X265485714Y-105910059D01*
X266390476Y-105338630D02*
X267009523Y-105338630D01*
X266676190Y-105719583D01*
X266819047Y-105719583D01*
X266914285Y-105767202D01*
X266961904Y-105814821D01*
X267009523Y-105910059D01*
X267009523Y-106148154D01*
X266961904Y-106243392D01*
X266914285Y-106291011D01*
X266819047Y-106338630D01*
X266533333Y-106338630D01*
X266438095Y-106291011D01*
X266390476Y-106243392D01*
X267485714Y-106338630D02*
X267676190Y-106338630D01*
X267771428Y-106291011D01*
X267819047Y-106243392D01*
X267914285Y-106100535D01*
X267961904Y-105910059D01*
X267961904Y-105529107D01*
X267914285Y-105433869D01*
X267866666Y-105386250D01*
X267771428Y-105338630D01*
X267580952Y-105338630D01*
X267485714Y-105386250D01*
X267438095Y-105433869D01*
X267390476Y-105529107D01*
X267390476Y-105767202D01*
X267438095Y-105862440D01*
X267485714Y-105910059D01*
X267580952Y-105957678D01*
X267771428Y-105957678D01*
X267866666Y-105910059D01*
X267914285Y-105862440D01*
X267961904Y-105767202D01*
X246435714Y-106338630D02*
X246435714Y-105338630D01*
X247007142Y-106338630D02*
X246578571Y-105767202D01*
X247007142Y-105338630D02*
X246435714Y-105910059D01*
X247340476Y-105338630D02*
X247959523Y-105338630D01*
X247626190Y-105719583D01*
X247769047Y-105719583D01*
X247864285Y-105767202D01*
X247911904Y-105814821D01*
X247959523Y-105910059D01*
X247959523Y-106148154D01*
X247911904Y-106243392D01*
X247864285Y-106291011D01*
X247769047Y-106338630D01*
X247483333Y-106338630D01*
X247388095Y-106291011D01*
X247340476Y-106243392D01*
X248530952Y-105767202D02*
X248435714Y-105719583D01*
X248388095Y-105671964D01*
X248340476Y-105576726D01*
X248340476Y-105529107D01*
X248388095Y-105433869D01*
X248435714Y-105386250D01*
X248530952Y-105338630D01*
X248721428Y-105338630D01*
X248816666Y-105386250D01*
X248864285Y-105433869D01*
X248911904Y-105529107D01*
X248911904Y-105576726D01*
X248864285Y-105671964D01*
X248816666Y-105719583D01*
X248721428Y-105767202D01*
X248530952Y-105767202D01*
X248435714Y-105814821D01*
X248388095Y-105862440D01*
X248340476Y-105957678D01*
X248340476Y-106148154D01*
X248388095Y-106243392D01*
X248435714Y-106291011D01*
X248530952Y-106338630D01*
X248721428Y-106338630D01*
X248816666Y-106291011D01*
X248864285Y-106243392D01*
X248911904Y-106148154D01*
X248911904Y-105957678D01*
X248864285Y-105862440D01*
X248816666Y-105814821D01*
X248721428Y-105767202D01*
X227385714Y-106338630D02*
X227385714Y-105338630D01*
X227957142Y-106338630D02*
X227528571Y-105767202D01*
X227957142Y-105338630D02*
X227385714Y-105910059D01*
X228290476Y-105338630D02*
X228909523Y-105338630D01*
X228576190Y-105719583D01*
X228719047Y-105719583D01*
X228814285Y-105767202D01*
X228861904Y-105814821D01*
X228909523Y-105910059D01*
X228909523Y-106148154D01*
X228861904Y-106243392D01*
X228814285Y-106291011D01*
X228719047Y-106338630D01*
X228433333Y-106338630D01*
X228338095Y-106291011D01*
X228290476Y-106243392D01*
X229242857Y-105338630D02*
X229909523Y-105338630D01*
X229480952Y-106338630D01*
X208335714Y-106338630D02*
X208335714Y-105338630D01*
X208907142Y-106338630D02*
X208478571Y-105767202D01*
X208907142Y-105338630D02*
X208335714Y-105910059D01*
X209240476Y-105338630D02*
X209859523Y-105338630D01*
X209526190Y-105719583D01*
X209669047Y-105719583D01*
X209764285Y-105767202D01*
X209811904Y-105814821D01*
X209859523Y-105910059D01*
X209859523Y-106148154D01*
X209811904Y-106243392D01*
X209764285Y-106291011D01*
X209669047Y-106338630D01*
X209383333Y-106338630D01*
X209288095Y-106291011D01*
X209240476Y-106243392D01*
X210716666Y-105338630D02*
X210526190Y-105338630D01*
X210430952Y-105386250D01*
X210383333Y-105433869D01*
X210288095Y-105576726D01*
X210240476Y-105767202D01*
X210240476Y-106148154D01*
X210288095Y-106243392D01*
X210335714Y-106291011D01*
X210430952Y-106338630D01*
X210621428Y-106338630D01*
X210716666Y-106291011D01*
X210764285Y-106243392D01*
X210811904Y-106148154D01*
X210811904Y-105910059D01*
X210764285Y-105814821D01*
X210716666Y-105767202D01*
X210621428Y-105719583D01*
X210430952Y-105719583D01*
X210335714Y-105767202D01*
X210288095Y-105814821D01*
X210240476Y-105910059D01*
X189285714Y-106338630D02*
X189285714Y-105338630D01*
X189857142Y-106338630D02*
X189428571Y-105767202D01*
X189857142Y-105338630D02*
X189285714Y-105910059D01*
X190190476Y-105338630D02*
X190809523Y-105338630D01*
X190476190Y-105719583D01*
X190619047Y-105719583D01*
X190714285Y-105767202D01*
X190761904Y-105814821D01*
X190809523Y-105910059D01*
X190809523Y-106148154D01*
X190761904Y-106243392D01*
X190714285Y-106291011D01*
X190619047Y-106338630D01*
X190333333Y-106338630D01*
X190238095Y-106291011D01*
X190190476Y-106243392D01*
X191714285Y-105338630D02*
X191238095Y-105338630D01*
X191190476Y-105814821D01*
X191238095Y-105767202D01*
X191333333Y-105719583D01*
X191571428Y-105719583D01*
X191666666Y-105767202D01*
X191714285Y-105814821D01*
X191761904Y-105910059D01*
X191761904Y-106148154D01*
X191714285Y-106243392D01*
X191666666Y-106291011D01*
X191571428Y-106338630D01*
X191333333Y-106338630D01*
X191238095Y-106291011D01*
X191190476Y-106243392D01*
X170235714Y-106338630D02*
X170235714Y-105338630D01*
X170807142Y-106338630D02*
X170378571Y-105767202D01*
X170807142Y-105338630D02*
X170235714Y-105910059D01*
X171140476Y-105338630D02*
X171759523Y-105338630D01*
X171426190Y-105719583D01*
X171569047Y-105719583D01*
X171664285Y-105767202D01*
X171711904Y-105814821D01*
X171759523Y-105910059D01*
X171759523Y-106148154D01*
X171711904Y-106243392D01*
X171664285Y-106291011D01*
X171569047Y-106338630D01*
X171283333Y-106338630D01*
X171188095Y-106291011D01*
X171140476Y-106243392D01*
X172616666Y-105671964D02*
X172616666Y-106338630D01*
X172378571Y-105291011D02*
X172140476Y-106005297D01*
X172759523Y-106005297D01*
X151185714Y-106338630D02*
X151185714Y-105338630D01*
X151757142Y-106338630D02*
X151328571Y-105767202D01*
X151757142Y-105338630D02*
X151185714Y-105910059D01*
X152090476Y-105338630D02*
X152709523Y-105338630D01*
X152376190Y-105719583D01*
X152519047Y-105719583D01*
X152614285Y-105767202D01*
X152661904Y-105814821D01*
X152709523Y-105910059D01*
X152709523Y-106148154D01*
X152661904Y-106243392D01*
X152614285Y-106291011D01*
X152519047Y-106338630D01*
X152233333Y-106338630D01*
X152138095Y-106291011D01*
X152090476Y-106243392D01*
X153042857Y-105338630D02*
X153661904Y-105338630D01*
X153328571Y-105719583D01*
X153471428Y-105719583D01*
X153566666Y-105767202D01*
X153614285Y-105814821D01*
X153661904Y-105910059D01*
X153661904Y-106148154D01*
X153614285Y-106243392D01*
X153566666Y-106291011D01*
X153471428Y-106338630D01*
X153185714Y-106338630D01*
X153090476Y-106291011D01*
X153042857Y-106243392D01*
X132135714Y-106338630D02*
X132135714Y-105338630D01*
X132707142Y-106338630D02*
X132278571Y-105767202D01*
X132707142Y-105338630D02*
X132135714Y-105910059D01*
X133040476Y-105338630D02*
X133659523Y-105338630D01*
X133326190Y-105719583D01*
X133469047Y-105719583D01*
X133564285Y-105767202D01*
X133611904Y-105814821D01*
X133659523Y-105910059D01*
X133659523Y-106148154D01*
X133611904Y-106243392D01*
X133564285Y-106291011D01*
X133469047Y-106338630D01*
X133183333Y-106338630D01*
X133088095Y-106291011D01*
X133040476Y-106243392D01*
X134040476Y-105433869D02*
X134088095Y-105386250D01*
X134183333Y-105338630D01*
X134421428Y-105338630D01*
X134516666Y-105386250D01*
X134564285Y-105433869D01*
X134611904Y-105529107D01*
X134611904Y-105624345D01*
X134564285Y-105767202D01*
X133992857Y-106338630D01*
X134611904Y-106338630D01*
X113085714Y-106338630D02*
X113085714Y-105338630D01*
X113657142Y-106338630D02*
X113228571Y-105767202D01*
X113657142Y-105338630D02*
X113085714Y-105910059D01*
X113990476Y-105338630D02*
X114609523Y-105338630D01*
X114276190Y-105719583D01*
X114419047Y-105719583D01*
X114514285Y-105767202D01*
X114561904Y-105814821D01*
X114609523Y-105910059D01*
X114609523Y-106148154D01*
X114561904Y-106243392D01*
X114514285Y-106291011D01*
X114419047Y-106338630D01*
X114133333Y-106338630D01*
X114038095Y-106291011D01*
X113990476Y-106243392D01*
X115561904Y-106338630D02*
X114990476Y-106338630D01*
X115276190Y-106338630D02*
X115276190Y-105338630D01*
X115180952Y-105481488D01*
X115085714Y-105576726D01*
X114990476Y-105624345D01*
X94035714Y-106338630D02*
X94035714Y-105338630D01*
X94607142Y-106338630D02*
X94178571Y-105767202D01*
X94607142Y-105338630D02*
X94035714Y-105910059D01*
X94940476Y-105338630D02*
X95559523Y-105338630D01*
X95226190Y-105719583D01*
X95369047Y-105719583D01*
X95464285Y-105767202D01*
X95511904Y-105814821D01*
X95559523Y-105910059D01*
X95559523Y-106148154D01*
X95511904Y-106243392D01*
X95464285Y-106291011D01*
X95369047Y-106338630D01*
X95083333Y-106338630D01*
X94988095Y-106291011D01*
X94940476Y-106243392D01*
X96178571Y-105338630D02*
X96273809Y-105338630D01*
X96369047Y-105386250D01*
X96416666Y-105433869D01*
X96464285Y-105529107D01*
X96511904Y-105719583D01*
X96511904Y-105957678D01*
X96464285Y-106148154D01*
X96416666Y-106243392D01*
X96369047Y-106291011D01*
X96273809Y-106338630D01*
X96178571Y-106338630D01*
X96083333Y-106291011D01*
X96035714Y-106243392D01*
X95988095Y-106148154D01*
X95940476Y-105957678D01*
X95940476Y-105719583D01*
X95988095Y-105529107D01*
X96035714Y-105433869D01*
X96083333Y-105386250D01*
X96178571Y-105338630D01*
X298823214Y-87288630D02*
X298823214Y-86288630D01*
X299394642Y-87288630D02*
X298966071Y-86717202D01*
X299394642Y-86288630D02*
X298823214Y-86860059D01*
X299775595Y-86383869D02*
X299823214Y-86336250D01*
X299918452Y-86288630D01*
X300156547Y-86288630D01*
X300251785Y-86336250D01*
X300299404Y-86383869D01*
X300347023Y-86479107D01*
X300347023Y-86574345D01*
X300299404Y-86717202D01*
X299727976Y-87288630D01*
X300347023Y-87288630D01*
X300918452Y-86717202D02*
X300823214Y-86669583D01*
X300775595Y-86621964D01*
X300727976Y-86526726D01*
X300727976Y-86479107D01*
X300775595Y-86383869D01*
X300823214Y-86336250D01*
X300918452Y-86288630D01*
X301108928Y-86288630D01*
X301204166Y-86336250D01*
X301251785Y-86383869D01*
X301299404Y-86479107D01*
X301299404Y-86526726D01*
X301251785Y-86621964D01*
X301204166Y-86669583D01*
X301108928Y-86717202D01*
X300918452Y-86717202D01*
X300823214Y-86764821D01*
X300775595Y-86812440D01*
X300727976Y-86907678D01*
X300727976Y-87098154D01*
X300775595Y-87193392D01*
X300823214Y-87241011D01*
X300918452Y-87288630D01*
X301108928Y-87288630D01*
X301204166Y-87241011D01*
X301251785Y-87193392D01*
X301299404Y-87098154D01*
X301299404Y-86907678D01*
X301251785Y-86812440D01*
X301204166Y-86764821D01*
X301108928Y-86717202D01*
X279773214Y-87288630D02*
X279773214Y-86288630D01*
X280344642Y-87288630D02*
X279916071Y-86717202D01*
X280344642Y-86288630D02*
X279773214Y-86860059D01*
X280725595Y-86383869D02*
X280773214Y-86336250D01*
X280868452Y-86288630D01*
X281106547Y-86288630D01*
X281201785Y-86336250D01*
X281249404Y-86383869D01*
X281297023Y-86479107D01*
X281297023Y-86574345D01*
X281249404Y-86717202D01*
X280677976Y-87288630D01*
X281297023Y-87288630D01*
X281630357Y-86288630D02*
X282297023Y-86288630D01*
X281868452Y-87288630D01*
X260723214Y-87288630D02*
X260723214Y-86288630D01*
X261294642Y-87288630D02*
X260866071Y-86717202D01*
X261294642Y-86288630D02*
X260723214Y-86860059D01*
X261675595Y-86383869D02*
X261723214Y-86336250D01*
X261818452Y-86288630D01*
X262056547Y-86288630D01*
X262151785Y-86336250D01*
X262199404Y-86383869D01*
X262247023Y-86479107D01*
X262247023Y-86574345D01*
X262199404Y-86717202D01*
X261627976Y-87288630D01*
X262247023Y-87288630D01*
X263104166Y-86288630D02*
X262913690Y-86288630D01*
X262818452Y-86336250D01*
X262770833Y-86383869D01*
X262675595Y-86526726D01*
X262627976Y-86717202D01*
X262627976Y-87098154D01*
X262675595Y-87193392D01*
X262723214Y-87241011D01*
X262818452Y-87288630D01*
X263008928Y-87288630D01*
X263104166Y-87241011D01*
X263151785Y-87193392D01*
X263199404Y-87098154D01*
X263199404Y-86860059D01*
X263151785Y-86764821D01*
X263104166Y-86717202D01*
X263008928Y-86669583D01*
X262818452Y-86669583D01*
X262723214Y-86717202D01*
X262675595Y-86764821D01*
X262627976Y-86860059D01*
X241673214Y-87288630D02*
X241673214Y-86288630D01*
X242244642Y-87288630D02*
X241816071Y-86717202D01*
X242244642Y-86288630D02*
X241673214Y-86860059D01*
X242625595Y-86383869D02*
X242673214Y-86336250D01*
X242768452Y-86288630D01*
X243006547Y-86288630D01*
X243101785Y-86336250D01*
X243149404Y-86383869D01*
X243197023Y-86479107D01*
X243197023Y-86574345D01*
X243149404Y-86717202D01*
X242577976Y-87288630D01*
X243197023Y-87288630D01*
X244101785Y-86288630D02*
X243625595Y-86288630D01*
X243577976Y-86764821D01*
X243625595Y-86717202D01*
X243720833Y-86669583D01*
X243958928Y-86669583D01*
X244054166Y-86717202D01*
X244101785Y-86764821D01*
X244149404Y-86860059D01*
X244149404Y-87098154D01*
X244101785Y-87193392D01*
X244054166Y-87241011D01*
X243958928Y-87288630D01*
X243720833Y-87288630D01*
X243625595Y-87241011D01*
X243577976Y-87193392D01*
X222623214Y-87288630D02*
X222623214Y-86288630D01*
X223194642Y-87288630D02*
X222766071Y-86717202D01*
X223194642Y-86288630D02*
X222623214Y-86860059D01*
X223575595Y-86383869D02*
X223623214Y-86336250D01*
X223718452Y-86288630D01*
X223956547Y-86288630D01*
X224051785Y-86336250D01*
X224099404Y-86383869D01*
X224147023Y-86479107D01*
X224147023Y-86574345D01*
X224099404Y-86717202D01*
X223527976Y-87288630D01*
X224147023Y-87288630D01*
X225004166Y-86621964D02*
X225004166Y-87288630D01*
X224766071Y-86241011D02*
X224527976Y-86955297D01*
X225147023Y-86955297D01*
X203573214Y-87288630D02*
X203573214Y-86288630D01*
X204144642Y-87288630D02*
X203716071Y-86717202D01*
X204144642Y-86288630D02*
X203573214Y-86860059D01*
X204525595Y-86383869D02*
X204573214Y-86336250D01*
X204668452Y-86288630D01*
X204906547Y-86288630D01*
X205001785Y-86336250D01*
X205049404Y-86383869D01*
X205097023Y-86479107D01*
X205097023Y-86574345D01*
X205049404Y-86717202D01*
X204477976Y-87288630D01*
X205097023Y-87288630D01*
X205430357Y-86288630D02*
X206049404Y-86288630D01*
X205716071Y-86669583D01*
X205858928Y-86669583D01*
X205954166Y-86717202D01*
X206001785Y-86764821D01*
X206049404Y-86860059D01*
X206049404Y-87098154D01*
X206001785Y-87193392D01*
X205954166Y-87241011D01*
X205858928Y-87288630D01*
X205573214Y-87288630D01*
X205477976Y-87241011D01*
X205430357Y-87193392D01*
X184523214Y-87288630D02*
X184523214Y-86288630D01*
X185094642Y-87288630D02*
X184666071Y-86717202D01*
X185094642Y-86288630D02*
X184523214Y-86860059D01*
X185475595Y-86383869D02*
X185523214Y-86336250D01*
X185618452Y-86288630D01*
X185856547Y-86288630D01*
X185951785Y-86336250D01*
X185999404Y-86383869D01*
X186047023Y-86479107D01*
X186047023Y-86574345D01*
X185999404Y-86717202D01*
X185427976Y-87288630D01*
X186047023Y-87288630D01*
X186427976Y-86383869D02*
X186475595Y-86336250D01*
X186570833Y-86288630D01*
X186808928Y-86288630D01*
X186904166Y-86336250D01*
X186951785Y-86383869D01*
X186999404Y-86479107D01*
X186999404Y-86574345D01*
X186951785Y-86717202D01*
X186380357Y-87288630D01*
X186999404Y-87288630D01*
X165473214Y-87288630D02*
X165473214Y-86288630D01*
X166044642Y-87288630D02*
X165616071Y-86717202D01*
X166044642Y-86288630D02*
X165473214Y-86860059D01*
X166425595Y-86383869D02*
X166473214Y-86336250D01*
X166568452Y-86288630D01*
X166806547Y-86288630D01*
X166901785Y-86336250D01*
X166949404Y-86383869D01*
X166997023Y-86479107D01*
X166997023Y-86574345D01*
X166949404Y-86717202D01*
X166377976Y-87288630D01*
X166997023Y-87288630D01*
X167949404Y-87288630D02*
X167377976Y-87288630D01*
X167663690Y-87288630D02*
X167663690Y-86288630D01*
X167568452Y-86431488D01*
X167473214Y-86526726D01*
X167377976Y-86574345D01*
X146423214Y-87288630D02*
X146423214Y-86288630D01*
X146994642Y-87288630D02*
X146566071Y-86717202D01*
X146994642Y-86288630D02*
X146423214Y-86860059D01*
X147375595Y-86383869D02*
X147423214Y-86336250D01*
X147518452Y-86288630D01*
X147756547Y-86288630D01*
X147851785Y-86336250D01*
X147899404Y-86383869D01*
X147947023Y-86479107D01*
X147947023Y-86574345D01*
X147899404Y-86717202D01*
X147327976Y-87288630D01*
X147947023Y-87288630D01*
X148566071Y-86288630D02*
X148661309Y-86288630D01*
X148756547Y-86336250D01*
X148804166Y-86383869D01*
X148851785Y-86479107D01*
X148899404Y-86669583D01*
X148899404Y-86907678D01*
X148851785Y-87098154D01*
X148804166Y-87193392D01*
X148756547Y-87241011D01*
X148661309Y-87288630D01*
X148566071Y-87288630D01*
X148470833Y-87241011D01*
X148423214Y-87193392D01*
X148375595Y-87098154D01*
X148327976Y-86907678D01*
X148327976Y-86669583D01*
X148375595Y-86479107D01*
X148423214Y-86383869D01*
X148470833Y-86336250D01*
X148566071Y-86288630D01*
X127373214Y-87288630D02*
X127373214Y-86288630D01*
X127944642Y-87288630D02*
X127516071Y-86717202D01*
X127944642Y-86288630D02*
X127373214Y-86860059D01*
X128897023Y-87288630D02*
X128325595Y-87288630D01*
X128611309Y-87288630D02*
X128611309Y-86288630D01*
X128516071Y-86431488D01*
X128420833Y-86526726D01*
X128325595Y-86574345D01*
X129373214Y-87288630D02*
X129563690Y-87288630D01*
X129658928Y-87241011D01*
X129706547Y-87193392D01*
X129801785Y-87050535D01*
X129849404Y-86860059D01*
X129849404Y-86479107D01*
X129801785Y-86383869D01*
X129754166Y-86336250D01*
X129658928Y-86288630D01*
X129468452Y-86288630D01*
X129373214Y-86336250D01*
X129325595Y-86383869D01*
X129277976Y-86479107D01*
X129277976Y-86717202D01*
X129325595Y-86812440D01*
X129373214Y-86860059D01*
X129468452Y-86907678D01*
X129658928Y-86907678D01*
X129754166Y-86860059D01*
X129801785Y-86812440D01*
X129849404Y-86717202D01*
X108323214Y-87288630D02*
X108323214Y-86288630D01*
X108894642Y-87288630D02*
X108466071Y-86717202D01*
X108894642Y-86288630D02*
X108323214Y-86860059D01*
X109847023Y-87288630D02*
X109275595Y-87288630D01*
X109561309Y-87288630D02*
X109561309Y-86288630D01*
X109466071Y-86431488D01*
X109370833Y-86526726D01*
X109275595Y-86574345D01*
X110418452Y-86717202D02*
X110323214Y-86669583D01*
X110275595Y-86621964D01*
X110227976Y-86526726D01*
X110227976Y-86479107D01*
X110275595Y-86383869D01*
X110323214Y-86336250D01*
X110418452Y-86288630D01*
X110608928Y-86288630D01*
X110704166Y-86336250D01*
X110751785Y-86383869D01*
X110799404Y-86479107D01*
X110799404Y-86526726D01*
X110751785Y-86621964D01*
X110704166Y-86669583D01*
X110608928Y-86717202D01*
X110418452Y-86717202D01*
X110323214Y-86764821D01*
X110275595Y-86812440D01*
X110227976Y-86907678D01*
X110227976Y-87098154D01*
X110275595Y-87193392D01*
X110323214Y-87241011D01*
X110418452Y-87288630D01*
X110608928Y-87288630D01*
X110704166Y-87241011D01*
X110751785Y-87193392D01*
X110799404Y-87098154D01*
X110799404Y-86907678D01*
X110751785Y-86812440D01*
X110704166Y-86764821D01*
X110608928Y-86717202D01*
X89273214Y-87288630D02*
X89273214Y-86288630D01*
X89844642Y-87288630D02*
X89416071Y-86717202D01*
X89844642Y-86288630D02*
X89273214Y-86860059D01*
X90797023Y-87288630D02*
X90225595Y-87288630D01*
X90511309Y-87288630D02*
X90511309Y-86288630D01*
X90416071Y-86431488D01*
X90320833Y-86526726D01*
X90225595Y-86574345D01*
X91130357Y-86288630D02*
X91797023Y-86288630D01*
X91368452Y-87288630D01*
X327398214Y-68238630D02*
X327398214Y-67238630D01*
X327969642Y-68238630D02*
X327541071Y-67667202D01*
X327969642Y-67238630D02*
X327398214Y-67810059D01*
X328922023Y-68238630D02*
X328350595Y-68238630D01*
X328636309Y-68238630D02*
X328636309Y-67238630D01*
X328541071Y-67381488D01*
X328445833Y-67476726D01*
X328350595Y-67524345D01*
X329826785Y-67238630D02*
X329350595Y-67238630D01*
X329302976Y-67714821D01*
X329350595Y-67667202D01*
X329445833Y-67619583D01*
X329683928Y-67619583D01*
X329779166Y-67667202D01*
X329826785Y-67714821D01*
X329874404Y-67810059D01*
X329874404Y-68048154D01*
X329826785Y-68143392D01*
X329779166Y-68191011D01*
X329683928Y-68238630D01*
X329445833Y-68238630D01*
X329350595Y-68191011D01*
X329302976Y-68143392D01*
X308348214Y-68238630D02*
X308348214Y-67238630D01*
X308919642Y-68238630D02*
X308491071Y-67667202D01*
X308919642Y-67238630D02*
X308348214Y-67810059D01*
X309872023Y-68238630D02*
X309300595Y-68238630D01*
X309586309Y-68238630D02*
X309586309Y-67238630D01*
X309491071Y-67381488D01*
X309395833Y-67476726D01*
X309300595Y-67524345D01*
X310729166Y-67571964D02*
X310729166Y-68238630D01*
X310491071Y-67191011D02*
X310252976Y-67905297D01*
X310872023Y-67905297D01*
X289298214Y-68238630D02*
X289298214Y-67238630D01*
X289869642Y-68238630D02*
X289441071Y-67667202D01*
X289869642Y-67238630D02*
X289298214Y-67810059D01*
X290822023Y-68238630D02*
X290250595Y-68238630D01*
X290536309Y-68238630D02*
X290536309Y-67238630D01*
X290441071Y-67381488D01*
X290345833Y-67476726D01*
X290250595Y-67524345D01*
X291155357Y-67238630D02*
X291774404Y-67238630D01*
X291441071Y-67619583D01*
X291583928Y-67619583D01*
X291679166Y-67667202D01*
X291726785Y-67714821D01*
X291774404Y-67810059D01*
X291774404Y-68048154D01*
X291726785Y-68143392D01*
X291679166Y-68191011D01*
X291583928Y-68238630D01*
X291298214Y-68238630D01*
X291202976Y-68191011D01*
X291155357Y-68143392D01*
X270248214Y-68238630D02*
X270248214Y-67238630D01*
X270819642Y-68238630D02*
X270391071Y-67667202D01*
X270819642Y-67238630D02*
X270248214Y-67810059D01*
X271772023Y-68238630D02*
X271200595Y-68238630D01*
X271486309Y-68238630D02*
X271486309Y-67238630D01*
X271391071Y-67381488D01*
X271295833Y-67476726D01*
X271200595Y-67524345D01*
X272152976Y-67333869D02*
X272200595Y-67286250D01*
X272295833Y-67238630D01*
X272533928Y-67238630D01*
X272629166Y-67286250D01*
X272676785Y-67333869D01*
X272724404Y-67429107D01*
X272724404Y-67524345D01*
X272676785Y-67667202D01*
X272105357Y-68238630D01*
X272724404Y-68238630D01*
X251198214Y-68238630D02*
X251198214Y-67238630D01*
X251769642Y-68238630D02*
X251341071Y-67667202D01*
X251769642Y-67238630D02*
X251198214Y-67810059D01*
X252722023Y-68238630D02*
X252150595Y-68238630D01*
X252436309Y-68238630D02*
X252436309Y-67238630D01*
X252341071Y-67381488D01*
X252245833Y-67476726D01*
X252150595Y-67524345D01*
X253674404Y-68238630D02*
X253102976Y-68238630D01*
X253388690Y-68238630D02*
X253388690Y-67238630D01*
X253293452Y-67381488D01*
X253198214Y-67476726D01*
X253102976Y-67524345D01*
X232148214Y-68238630D02*
X232148214Y-67238630D01*
X232719642Y-68238630D02*
X232291071Y-67667202D01*
X232719642Y-67238630D02*
X232148214Y-67810059D01*
X233672023Y-68238630D02*
X233100595Y-68238630D01*
X233386309Y-68238630D02*
X233386309Y-67238630D01*
X233291071Y-67381488D01*
X233195833Y-67476726D01*
X233100595Y-67524345D01*
X234291071Y-67238630D02*
X234386309Y-67238630D01*
X234481547Y-67286250D01*
X234529166Y-67333869D01*
X234576785Y-67429107D01*
X234624404Y-67619583D01*
X234624404Y-67857678D01*
X234576785Y-68048154D01*
X234529166Y-68143392D01*
X234481547Y-68191011D01*
X234386309Y-68238630D01*
X234291071Y-68238630D01*
X234195833Y-68191011D01*
X234148214Y-68143392D01*
X234100595Y-68048154D01*
X234052976Y-67857678D01*
X234052976Y-67619583D01*
X234100595Y-67429107D01*
X234148214Y-67333869D01*
X234195833Y-67286250D01*
X234291071Y-67238630D01*
X213574404Y-68238630D02*
X213574404Y-67238630D01*
X214145833Y-68238630D02*
X213717261Y-67667202D01*
X214145833Y-67238630D02*
X213574404Y-67810059D01*
X214622023Y-68238630D02*
X214812500Y-68238630D01*
X214907738Y-68191011D01*
X214955357Y-68143392D01*
X215050595Y-68000535D01*
X215098214Y-67810059D01*
X215098214Y-67429107D01*
X215050595Y-67333869D01*
X215002976Y-67286250D01*
X214907738Y-67238630D01*
X214717261Y-67238630D01*
X214622023Y-67286250D01*
X214574404Y-67333869D01*
X214526785Y-67429107D01*
X214526785Y-67667202D01*
X214574404Y-67762440D01*
X214622023Y-67810059D01*
X214717261Y-67857678D01*
X214907738Y-67857678D01*
X215002976Y-67810059D01*
X215050595Y-67762440D01*
X215098214Y-67667202D01*
X194524404Y-68238630D02*
X194524404Y-67238630D01*
X195095833Y-68238630D02*
X194667261Y-67667202D01*
X195095833Y-67238630D02*
X194524404Y-67810059D01*
X195667261Y-67667202D02*
X195572023Y-67619583D01*
X195524404Y-67571964D01*
X195476785Y-67476726D01*
X195476785Y-67429107D01*
X195524404Y-67333869D01*
X195572023Y-67286250D01*
X195667261Y-67238630D01*
X195857738Y-67238630D01*
X195952976Y-67286250D01*
X196000595Y-67333869D01*
X196048214Y-67429107D01*
X196048214Y-67476726D01*
X196000595Y-67571964D01*
X195952976Y-67619583D01*
X195857738Y-67667202D01*
X195667261Y-67667202D01*
X195572023Y-67714821D01*
X195524404Y-67762440D01*
X195476785Y-67857678D01*
X195476785Y-68048154D01*
X195524404Y-68143392D01*
X195572023Y-68191011D01*
X195667261Y-68238630D01*
X195857738Y-68238630D01*
X195952976Y-68191011D01*
X196000595Y-68143392D01*
X196048214Y-68048154D01*
X196048214Y-67857678D01*
X196000595Y-67762440D01*
X195952976Y-67714821D01*
X195857738Y-67667202D01*
X175474404Y-68238630D02*
X175474404Y-67238630D01*
X176045833Y-68238630D02*
X175617261Y-67667202D01*
X176045833Y-67238630D02*
X175474404Y-67810059D01*
X176379166Y-67238630D02*
X177045833Y-67238630D01*
X176617261Y-68238630D01*
X156424404Y-68238630D02*
X156424404Y-67238630D01*
X156995833Y-68238630D02*
X156567261Y-67667202D01*
X156995833Y-67238630D02*
X156424404Y-67810059D01*
X157852976Y-67238630D02*
X157662500Y-67238630D01*
X157567261Y-67286250D01*
X157519642Y-67333869D01*
X157424404Y-67476726D01*
X157376785Y-67667202D01*
X157376785Y-68048154D01*
X157424404Y-68143392D01*
X157472023Y-68191011D01*
X157567261Y-68238630D01*
X157757738Y-68238630D01*
X157852976Y-68191011D01*
X157900595Y-68143392D01*
X157948214Y-68048154D01*
X157948214Y-67810059D01*
X157900595Y-67714821D01*
X157852976Y-67667202D01*
X157757738Y-67619583D01*
X157567261Y-67619583D01*
X157472023Y-67667202D01*
X157424404Y-67714821D01*
X157376785Y-67810059D01*
X137374404Y-68238630D02*
X137374404Y-67238630D01*
X137945833Y-68238630D02*
X137517261Y-67667202D01*
X137945833Y-67238630D02*
X137374404Y-67810059D01*
X138850595Y-67238630D02*
X138374404Y-67238630D01*
X138326785Y-67714821D01*
X138374404Y-67667202D01*
X138469642Y-67619583D01*
X138707738Y-67619583D01*
X138802976Y-67667202D01*
X138850595Y-67714821D01*
X138898214Y-67810059D01*
X138898214Y-68048154D01*
X138850595Y-68143392D01*
X138802976Y-68191011D01*
X138707738Y-68238630D01*
X138469642Y-68238630D01*
X138374404Y-68191011D01*
X138326785Y-68143392D01*
X118324404Y-68238630D02*
X118324404Y-67238630D01*
X118895833Y-68238630D02*
X118467261Y-67667202D01*
X118895833Y-67238630D02*
X118324404Y-67810059D01*
X119752976Y-67571964D02*
X119752976Y-68238630D01*
X119514880Y-67191011D02*
X119276785Y-67905297D01*
X119895833Y-67905297D01*
X99274404Y-68238630D02*
X99274404Y-67238630D01*
X99845833Y-68238630D02*
X99417261Y-67667202D01*
X99845833Y-67238630D02*
X99274404Y-67810059D01*
X100179166Y-67238630D02*
X100798214Y-67238630D01*
X100464880Y-67619583D01*
X100607738Y-67619583D01*
X100702976Y-67667202D01*
X100750595Y-67714821D01*
X100798214Y-67810059D01*
X100798214Y-68048154D01*
X100750595Y-68143392D01*
X100702976Y-68191011D01*
X100607738Y-68238630D01*
X100322023Y-68238630D01*
X100226785Y-68191011D01*
X100179166Y-68143392D01*
X80224404Y-68238630D02*
X80224404Y-67238630D01*
X80795833Y-68238630D02*
X80367261Y-67667202D01*
X80795833Y-67238630D02*
X80224404Y-67810059D01*
X81176785Y-67333869D02*
X81224404Y-67286250D01*
X81319642Y-67238630D01*
X81557738Y-67238630D01*
X81652976Y-67286250D01*
X81700595Y-67333869D01*
X81748214Y-67429107D01*
X81748214Y-67524345D01*
X81700595Y-67667202D01*
X81129166Y-68238630D01*
X81748214Y-68238630D01*
X149757142Y-85691964D02*
X149519047Y-85691964D01*
X149519047Y-84263392D01*
X149757142Y-84263392D01*
X150090476Y-85311011D02*
X150233333Y-85358630D01*
X150471428Y-85358630D01*
X150566666Y-85311011D01*
X150614285Y-85263392D01*
X150661904Y-85168154D01*
X150661904Y-85072916D01*
X150614285Y-84977678D01*
X150566666Y-84930059D01*
X150471428Y-84882440D01*
X150280952Y-84834821D01*
X150185714Y-84787202D01*
X150138095Y-84739583D01*
X150090476Y-84644345D01*
X150090476Y-84549107D01*
X150138095Y-84453869D01*
X150185714Y-84406250D01*
X150280952Y-84358630D01*
X150519047Y-84358630D01*
X150661904Y-84406250D01*
X151661904Y-85263392D02*
X151614285Y-85311011D01*
X151471428Y-85358630D01*
X151376190Y-85358630D01*
X151233333Y-85311011D01*
X151138095Y-85215773D01*
X151090476Y-85120535D01*
X151042857Y-84930059D01*
X151042857Y-84787202D01*
X151090476Y-84596726D01*
X151138095Y-84501488D01*
X151233333Y-84406250D01*
X151376190Y-84358630D01*
X151471428Y-84358630D01*
X151614285Y-84406250D01*
X151661904Y-84453869D01*
X152661904Y-85358630D02*
X152328571Y-84882440D01*
X152090476Y-85358630D02*
X152090476Y-84358630D01*
X152471428Y-84358630D01*
X152566666Y-84406250D01*
X152614285Y-84453869D01*
X152661904Y-84549107D01*
X152661904Y-84691964D01*
X152614285Y-84787202D01*
X152566666Y-84834821D01*
X152471428Y-84882440D01*
X152090476Y-84882440D01*
X153090476Y-84834821D02*
X153423809Y-84834821D01*
X153566666Y-85358630D02*
X153090476Y-85358630D01*
X153090476Y-84358630D01*
X153566666Y-84358630D01*
X153900000Y-84358630D02*
X154138095Y-85358630D01*
X154328571Y-84644345D01*
X154519047Y-85358630D01*
X154757142Y-84358630D01*
X155042857Y-85691964D02*
X155280952Y-85691964D01*
X155280952Y-84263392D01*
X155042857Y-84263392D01*
X225957142Y-85691964D02*
X225719047Y-85691964D01*
X225719047Y-84263392D01*
X225957142Y-84263392D01*
X226290476Y-85311011D02*
X226433333Y-85358630D01*
X226671428Y-85358630D01*
X226766666Y-85311011D01*
X226814285Y-85263392D01*
X226861904Y-85168154D01*
X226861904Y-85072916D01*
X226814285Y-84977678D01*
X226766666Y-84930059D01*
X226671428Y-84882440D01*
X226480952Y-84834821D01*
X226385714Y-84787202D01*
X226338095Y-84739583D01*
X226290476Y-84644345D01*
X226290476Y-84549107D01*
X226338095Y-84453869D01*
X226385714Y-84406250D01*
X226480952Y-84358630D01*
X226719047Y-84358630D01*
X226861904Y-84406250D01*
X227861904Y-85263392D02*
X227814285Y-85311011D01*
X227671428Y-85358630D01*
X227576190Y-85358630D01*
X227433333Y-85311011D01*
X227338095Y-85215773D01*
X227290476Y-85120535D01*
X227242857Y-84930059D01*
X227242857Y-84787202D01*
X227290476Y-84596726D01*
X227338095Y-84501488D01*
X227433333Y-84406250D01*
X227576190Y-84358630D01*
X227671428Y-84358630D01*
X227814285Y-84406250D01*
X227861904Y-84453869D01*
X228861904Y-85358630D02*
X228528571Y-84882440D01*
X228290476Y-85358630D02*
X228290476Y-84358630D01*
X228671428Y-84358630D01*
X228766666Y-84406250D01*
X228814285Y-84453869D01*
X228861904Y-84549107D01*
X228861904Y-84691964D01*
X228814285Y-84787202D01*
X228766666Y-84834821D01*
X228671428Y-84882440D01*
X228290476Y-84882440D01*
X229290476Y-84834821D02*
X229623809Y-84834821D01*
X229766666Y-85358630D02*
X229290476Y-85358630D01*
X229290476Y-84358630D01*
X229766666Y-84358630D01*
X230100000Y-84358630D02*
X230338095Y-85358630D01*
X230528571Y-84644345D01*
X230719047Y-85358630D01*
X230957142Y-84358630D01*
X231242857Y-85691964D02*
X231480952Y-85691964D01*
X231480952Y-84263392D01*
X231242857Y-84263392D01*
X73557142Y-133316964D02*
X73319047Y-133316964D01*
X73319047Y-131888392D01*
X73557142Y-131888392D01*
X73890476Y-132936011D02*
X74033333Y-132983630D01*
X74271428Y-132983630D01*
X74366666Y-132936011D01*
X74414285Y-132888392D01*
X74461904Y-132793154D01*
X74461904Y-132697916D01*
X74414285Y-132602678D01*
X74366666Y-132555059D01*
X74271428Y-132507440D01*
X74080952Y-132459821D01*
X73985714Y-132412202D01*
X73938095Y-132364583D01*
X73890476Y-132269345D01*
X73890476Y-132174107D01*
X73938095Y-132078869D01*
X73985714Y-132031250D01*
X74080952Y-131983630D01*
X74319047Y-131983630D01*
X74461904Y-132031250D01*
X75461904Y-132888392D02*
X75414285Y-132936011D01*
X75271428Y-132983630D01*
X75176190Y-132983630D01*
X75033333Y-132936011D01*
X74938095Y-132840773D01*
X74890476Y-132745535D01*
X74842857Y-132555059D01*
X74842857Y-132412202D01*
X74890476Y-132221726D01*
X74938095Y-132126488D01*
X75033333Y-132031250D01*
X75176190Y-131983630D01*
X75271428Y-131983630D01*
X75414285Y-132031250D01*
X75461904Y-132078869D01*
X76461904Y-132983630D02*
X76128571Y-132507440D01*
X75890476Y-132983630D02*
X75890476Y-131983630D01*
X76271428Y-131983630D01*
X76366666Y-132031250D01*
X76414285Y-132078869D01*
X76461904Y-132174107D01*
X76461904Y-132316964D01*
X76414285Y-132412202D01*
X76366666Y-132459821D01*
X76271428Y-132507440D01*
X75890476Y-132507440D01*
X76890476Y-132459821D02*
X77223809Y-132459821D01*
X77366666Y-132983630D02*
X76890476Y-132983630D01*
X76890476Y-131983630D01*
X77366666Y-131983630D01*
X77700000Y-131983630D02*
X77938095Y-132983630D01*
X78128571Y-132269345D01*
X78319047Y-132983630D01*
X78557142Y-131983630D01*
X78842857Y-133316964D02*
X79080952Y-133316964D01*
X79080952Y-131888392D01*
X78842857Y-131888392D01*
X64032142Y-66641964D02*
X63794047Y-66641964D01*
X63794047Y-65213392D01*
X64032142Y-65213392D01*
X64365476Y-66261011D02*
X64508333Y-66308630D01*
X64746428Y-66308630D01*
X64841666Y-66261011D01*
X64889285Y-66213392D01*
X64936904Y-66118154D01*
X64936904Y-66022916D01*
X64889285Y-65927678D01*
X64841666Y-65880059D01*
X64746428Y-65832440D01*
X64555952Y-65784821D01*
X64460714Y-65737202D01*
X64413095Y-65689583D01*
X64365476Y-65594345D01*
X64365476Y-65499107D01*
X64413095Y-65403869D01*
X64460714Y-65356250D01*
X64555952Y-65308630D01*
X64794047Y-65308630D01*
X64936904Y-65356250D01*
X65936904Y-66213392D02*
X65889285Y-66261011D01*
X65746428Y-66308630D01*
X65651190Y-66308630D01*
X65508333Y-66261011D01*
X65413095Y-66165773D01*
X65365476Y-66070535D01*
X65317857Y-65880059D01*
X65317857Y-65737202D01*
X65365476Y-65546726D01*
X65413095Y-65451488D01*
X65508333Y-65356250D01*
X65651190Y-65308630D01*
X65746428Y-65308630D01*
X65889285Y-65356250D01*
X65936904Y-65403869D01*
X66936904Y-66308630D02*
X66603571Y-65832440D01*
X66365476Y-66308630D02*
X66365476Y-65308630D01*
X66746428Y-65308630D01*
X66841666Y-65356250D01*
X66889285Y-65403869D01*
X66936904Y-65499107D01*
X66936904Y-65641964D01*
X66889285Y-65737202D01*
X66841666Y-65784821D01*
X66746428Y-65832440D01*
X66365476Y-65832440D01*
X67365476Y-65784821D02*
X67698809Y-65784821D01*
X67841666Y-66308630D02*
X67365476Y-66308630D01*
X67365476Y-65308630D01*
X67841666Y-65308630D01*
X68175000Y-65308630D02*
X68413095Y-66308630D01*
X68603571Y-65594345D01*
X68794047Y-66308630D01*
X69032142Y-65308630D01*
X69317857Y-66641964D02*
X69555952Y-66641964D01*
X69555952Y-65213392D01*
X69317857Y-65213392D01*
X325969642Y-123791964D02*
X325731547Y-123791964D01*
X325731547Y-122363392D01*
X325969642Y-122363392D01*
X326302976Y-123411011D02*
X326445833Y-123458630D01*
X326683928Y-123458630D01*
X326779166Y-123411011D01*
X326826785Y-123363392D01*
X326874404Y-123268154D01*
X326874404Y-123172916D01*
X326826785Y-123077678D01*
X326779166Y-123030059D01*
X326683928Y-122982440D01*
X326493452Y-122934821D01*
X326398214Y-122887202D01*
X326350595Y-122839583D01*
X326302976Y-122744345D01*
X326302976Y-122649107D01*
X326350595Y-122553869D01*
X326398214Y-122506250D01*
X326493452Y-122458630D01*
X326731547Y-122458630D01*
X326874404Y-122506250D01*
X327874404Y-123363392D02*
X327826785Y-123411011D01*
X327683928Y-123458630D01*
X327588690Y-123458630D01*
X327445833Y-123411011D01*
X327350595Y-123315773D01*
X327302976Y-123220535D01*
X327255357Y-123030059D01*
X327255357Y-122887202D01*
X327302976Y-122696726D01*
X327350595Y-122601488D01*
X327445833Y-122506250D01*
X327588690Y-122458630D01*
X327683928Y-122458630D01*
X327826785Y-122506250D01*
X327874404Y-122553869D01*
X328874404Y-123458630D02*
X328541071Y-122982440D01*
X328302976Y-123458630D02*
X328302976Y-122458630D01*
X328683928Y-122458630D01*
X328779166Y-122506250D01*
X328826785Y-122553869D01*
X328874404Y-122649107D01*
X328874404Y-122791964D01*
X328826785Y-122887202D01*
X328779166Y-122934821D01*
X328683928Y-122982440D01*
X328302976Y-122982440D01*
X329302976Y-122934821D02*
X329636309Y-122934821D01*
X329779166Y-123458630D02*
X329302976Y-123458630D01*
X329302976Y-122458630D01*
X329779166Y-122458630D01*
X330112500Y-122458630D02*
X330350595Y-123458630D01*
X330541071Y-122744345D01*
X330731547Y-123458630D01*
X330969642Y-122458630D01*
X331255357Y-123791964D02*
X331493452Y-123791964D01*
X331493452Y-122363392D01*
X331255357Y-122363392D01*
X42309523Y-126928571D02*
X42642857Y-126928571D01*
X42785714Y-127452380D02*
X42309523Y-127452380D01*
X42309523Y-126452380D01*
X42785714Y-126452380D01*
X43738095Y-127452380D02*
X43166666Y-127452380D01*
X43452380Y-127452380D02*
X43452380Y-126452380D01*
X43357142Y-126595238D01*
X43261904Y-126690476D01*
X43166666Y-126738095D01*
X325969642Y-66641964D02*
X325731547Y-66641964D01*
X325731547Y-65213392D01*
X325969642Y-65213392D01*
X326302976Y-66261011D02*
X326445833Y-66308630D01*
X326683928Y-66308630D01*
X326779166Y-66261011D01*
X326826785Y-66213392D01*
X326874404Y-66118154D01*
X326874404Y-66022916D01*
X326826785Y-65927678D01*
X326779166Y-65880059D01*
X326683928Y-65832440D01*
X326493452Y-65784821D01*
X326398214Y-65737202D01*
X326350595Y-65689583D01*
X326302976Y-65594345D01*
X326302976Y-65499107D01*
X326350595Y-65403869D01*
X326398214Y-65356250D01*
X326493452Y-65308630D01*
X326731547Y-65308630D01*
X326874404Y-65356250D01*
X327874404Y-66213392D02*
X327826785Y-66261011D01*
X327683928Y-66308630D01*
X327588690Y-66308630D01*
X327445833Y-66261011D01*
X327350595Y-66165773D01*
X327302976Y-66070535D01*
X327255357Y-65880059D01*
X327255357Y-65737202D01*
X327302976Y-65546726D01*
X327350595Y-65451488D01*
X327445833Y-65356250D01*
X327588690Y-65308630D01*
X327683928Y-65308630D01*
X327826785Y-65356250D01*
X327874404Y-65403869D01*
X328874404Y-66308630D02*
X328541071Y-65832440D01*
X328302976Y-66308630D02*
X328302976Y-65308630D01*
X328683928Y-65308630D01*
X328779166Y-65356250D01*
X328826785Y-65403869D01*
X328874404Y-65499107D01*
X328874404Y-65641964D01*
X328826785Y-65737202D01*
X328779166Y-65784821D01*
X328683928Y-65832440D01*
X328302976Y-65832440D01*
X329302976Y-65784821D02*
X329636309Y-65784821D01*
X329779166Y-66308630D02*
X329302976Y-66308630D01*
X329302976Y-65308630D01*
X329779166Y-65308630D01*
X330112500Y-65308630D02*
X330350595Y-66308630D01*
X330541071Y-65594345D01*
X330731547Y-66308630D01*
X330969642Y-65308630D01*
X331255357Y-66641964D02*
X331493452Y-66641964D01*
X331493452Y-65213392D01*
X331255357Y-65213392D01*
X42404761Y-99452380D02*
X42071428Y-98976190D01*
X41833333Y-99452380D02*
X41833333Y-98452380D01*
X42214285Y-98452380D01*
X42309523Y-98500000D01*
X42357142Y-98547619D01*
X42404761Y-98642857D01*
X42404761Y-98785714D01*
X42357142Y-98880952D01*
X42309523Y-98928571D01*
X42214285Y-98976190D01*
X41833333Y-98976190D01*
X42690476Y-98452380D02*
X43023809Y-99452380D01*
X43357142Y-98452380D01*
X44214285Y-99452380D02*
X43642857Y-99452380D01*
X43928571Y-99452380D02*
X43928571Y-98452380D01*
X43833333Y-98595238D01*
X43738095Y-98690476D01*
X43642857Y-98738095D01*
M02*
