M48
; DRILL file {KiCad (5.99.0-208-ga1d3f3486)} date 08/15/20 19:48:20
; FORMAT={3:3/ absolute / metric / suppress leading zeros}
; #@! TF.CreationDate,2020-08-15T19:48:20+07:00
; #@! TF.GenerationSoftware,Kicad,Pcbnew,(5.99.0-208-ga1d3f3486)
FMAT,2
METRIC,TZ
T1C0.400
T2C0.600
T3C0.850
T4C1.000
T5C1.499
T6C1.500
T7C1.500
T8C1.702
T9C2.200
T10C3.000
T11C3.048
T12C3.050
T13C3.988
T14C4.000
%
G90
G05
T1
X48335Y-77735
X57200Y-141300
X71500Y-64800
X77000Y-83900
X78200Y-102900
X81000Y-140100
X81300Y-64800
X83000Y-141000
X90600Y-64700
X91900Y-83900
X93000Y-120100
X95300Y-143000
X96000Y-102900
X100300Y-64600
X100500Y-83800
X104800Y-102900
X104800Y-138200
X105700Y-141000
X109600Y-64800
X109700Y-121900
X111000Y-83800
X115200Y-102900
X119300Y-64900
X119800Y-121900
X120000Y-83800
X121500Y-141000
X125000Y-102900
X125200Y-131400
X126100Y-130600
X126100Y-144000
X126200Y-67700
X128400Y-136700
X128500Y-142900
X128800Y-64800
X129200Y-135600
X129227Y-142100
X130000Y-83800
X130100Y-134600
X130100Y-141500
X131000Y-140400
X131100Y-118400
X134200Y-102900
X135800Y-87000
X136600Y-133800
X138400Y-64800
X138600Y-83800
X139000Y-121900
X139000Y-125000
X140500Y-105600
X141000Y-114000
X143300Y-102900
X144400Y-139000
X145100Y-135200
X145900Y-124200
X146500Y-138600
X147100Y-123100
X147900Y-64800
X148900Y-118700
X149000Y-83800
X150100Y-131600
X150100Y-136200
X150300Y-122300
X150548Y-142148
X150800Y-130800
X151000Y-141000
X151100Y-121400
X151397Y-139727
X151600Y-133300
X152000Y-120300
X153300Y-102900
X153800Y-135900
X154600Y-119900
X154600Y-125000
X156673Y-133727
X156700Y-121900
X157300Y-83800
X157300Y-124200
X157400Y-64800
X157400Y-132600
X157854Y-139706
X160000Y-124900
X161300Y-138500
X161600Y-134727
X162400Y-102800
X162500Y-137000
X163300Y-144100
X163800Y-115800
X167100Y-64700
X167800Y-118200
X168000Y-83800
X168000Y-134727
X168400Y-123400
X169100Y-119100
X169100Y-121875
X169100Y-124900
X169700Y-146000
X171100Y-119100
X171300Y-125700
X171300Y-127100
X171300Y-128700
X171300Y-130100
X171300Y-131400
X172500Y-102800
X172700Y-132800
X174100Y-131400
X175300Y-130100
X176500Y-64800
X176600Y-83800
X181600Y-102900
X185800Y-64800
X187000Y-83800
X188200Y-119300
X188200Y-121900
X190500Y-143000
X190500Y-145000
X191600Y-102900
X193500Y-140000
X195500Y-83800
X195600Y-64800
X197500Y-121900
X200700Y-102900
X203000Y-137000
X203000Y-140000
X205000Y-121900
X205300Y-64800
X206000Y-83800
X207200Y-126200
X210600Y-102900
X214700Y-64800
X214900Y-83800
X218700Y-121900
X219500Y-102900
X224000Y-121900
X224200Y-64800
X225000Y-83800
X226300Y-126200
X229800Y-102900
X233700Y-64800
X233700Y-83700
X237900Y-122000
X238400Y-102900
X243200Y-64700
X244000Y-83700
X245300Y-119600
X245300Y-121900
X248700Y-102900
X249900Y-126200
X252700Y-64700
X253100Y-83800
X254600Y-121900
X257700Y-102900
X262300Y-64700
X263000Y-83800
X264400Y-119600
X264400Y-121900
X268000Y-102900
X271900Y-64700
X271900Y-83800
X273600Y-121900
X276700Y-102900
X281300Y-64800
X282000Y-83800
X283428Y-120828
X283700Y-122700
X286700Y-102800
X291200Y-64700
X291200Y-83800
X292400Y-122700
X295800Y-102900
X300000Y-141000
X300200Y-102800
X300600Y-64700
X301000Y-83800
X302477Y-121777
X302500Y-123300
X310000Y-64700
X311700Y-82000
X311900Y-123300
X312000Y-86000
X314000Y-141000
X316000Y-86000
X316300Y-82000
X319000Y-141000
X319500Y-64800
X321527Y-121927
X321600Y-123900
X326200Y-124000
X329200Y-64800
X332700Y-141000
T3
X40262Y-62600
X40262Y-67600
T4
X41200Y-52900
X41200Y-96400
X44700Y-96400
X244420Y-131683
X244420Y-134223
X244420Y-136763
X244420Y-139303
X40401Y-109650
X40401Y-124150
X42901Y-124150
X45401Y-109650
X45401Y-124150
X169620Y-141600
X169620Y-144140
X172160Y-141600
X172160Y-144140
X174700Y-141600
X174700Y-144140
T5
X154623Y-121761
X160973Y-119221
X249873Y-64611
X256222Y-62071
X287972Y-64611
X294323Y-62071
X230823Y-121761
X237173Y-119221
X135573Y-64611
X141923Y-62071
X61754Y-140811
X68104Y-138271
X92710Y-102711
X99060Y-100171
X278448Y-83661
X284798Y-81121
X259398Y-83661
X265748Y-81121
X307023Y-140811
X313373Y-138271
X183198Y-83661
X189548Y-81121
X173673Y-64611
X180023Y-62071
X297498Y-83661
X303847Y-81121
X287972Y-121761
X294323Y-119221
X168910Y-102711
X175260Y-100171
X283210Y-102711
X289560Y-100171
X314166Y-102711
X320516Y-100171
X321310Y-83661
X327660Y-81121
X145098Y-83661
X151448Y-81121
X187960Y-102711
X194310Y-100171
X192723Y-64611
X199073Y-62071
X173673Y-121761
X180023Y-119221
X211773Y-121761
X218123Y-119221
X230823Y-64611
X237173Y-62071
X245110Y-102711
X251460Y-100171
X326073Y-140811
X332422Y-138271
X64135Y-83661
X70485Y-81121
X207010Y-102711
X213360Y-100171
X287972Y-140811
X294323Y-138271
X164148Y-83661
X170498Y-81121
X326073Y-121761
X332422Y-119221
X106998Y-83661
X113348Y-81121
X154623Y-64611
X160973Y-62071
X59372Y-64611
X65722Y-62071
X202248Y-83661
X208598Y-81121
X192723Y-121761
X199073Y-119221
X116523Y-64611
X122873Y-62071
X180816Y-140811
X187166Y-138271
X111760Y-102711
X118110Y-100171
X307023Y-121761
X313373Y-119221
X87948Y-83661
X94298Y-81121
X226060Y-102711
X232410Y-100171
X97473Y-64611
X103823Y-62071
X135573Y-121761
X141923Y-119221
X109379Y-140811
X115729Y-138271
X149860Y-102711
X156210Y-100171
X240348Y-83661
X246698Y-81121
X268923Y-121761
X275273Y-119221
X307023Y-64611
X313373Y-62071
X68897Y-121761
X75248Y-119221
X126048Y-83661
X132398Y-81121
X78423Y-64611
X84773Y-62071
X116523Y-121761
X122873Y-119221
X66516Y-102711
X72866Y-100171
X130810Y-102711
X137160Y-100171
X264160Y-102711
X270510Y-100171
X268923Y-64611
X275273Y-62071
X326073Y-64611
X332422Y-62071
X249873Y-121761
X256222Y-119221
X211773Y-64611
X218123Y-62071
X97414Y-121761
X103764Y-119221
X85566Y-140811
X91916Y-138271
X221298Y-83661
X227648Y-81121
T7
X38700Y-58300
X38700Y-91100
X47200Y-57100
X47200Y-92300
T8
X275908Y-78581
X286068Y-78581
X256858Y-78581
X267017Y-78581
X304483Y-135731
X314642Y-135731
X180658Y-78581
X190818Y-78581
X171133Y-59531
X181293Y-59531
X294958Y-78581
X305118Y-78581
X285433Y-116681
X295592Y-116681
X166370Y-97631
X176530Y-97631
X280670Y-97631
X290830Y-97631
X311626Y-97631
X321786Y-97631
X318770Y-78581
X328930Y-78581
X142558Y-78581
X152718Y-78581
X185420Y-97631
X195580Y-97631
X190183Y-59531
X200343Y-59531
X171133Y-116681
X181293Y-116681
X209233Y-116681
X219392Y-116681
X228283Y-59531
X238443Y-59531
X242570Y-97631
X252730Y-97631
X323533Y-135731
X333693Y-135731
X61595Y-78581
X71755Y-78581
X204470Y-97631
X214630Y-97631
X285433Y-135731
X295592Y-135731
X161607Y-78581
X171767Y-78581
X323533Y-116681
X333693Y-116681
X104458Y-78581
X114618Y-78581
X152082Y-59531
X162243Y-59531
X56832Y-59531
X66993Y-59531
X199708Y-78581
X209867Y-78581
X190183Y-116681
X200343Y-116681
X113983Y-59531
X124143Y-59531
X178276Y-135731
X188436Y-135731
X109220Y-97631
X119380Y-97631
X304483Y-116681
X314642Y-116681
X85408Y-78581
X95568Y-78581
X223520Y-97631
X233680Y-97631
X94933Y-59531
X105093Y-59531
X133033Y-116681
X143193Y-116681
X106839Y-135731
X116999Y-135731
X147320Y-97631
X157480Y-97631
X237808Y-78581
X247968Y-78581
X266383Y-116681
X276542Y-116681
X304483Y-59531
X314642Y-59531
X66358Y-116681
X76518Y-116681
X123507Y-78581
X133668Y-78581
X75882Y-59531
X86043Y-59531
X113983Y-116681
X124143Y-116681
X63976Y-97631
X74136Y-97631
X128270Y-97631
X138430Y-97631
X261620Y-97631
X271780Y-97631
X266383Y-59531
X276542Y-59531
X323533Y-59531
X333693Y-59531
X247333Y-116681
X257493Y-116681
X209233Y-59531
X219392Y-59531
X94874Y-116681
X105034Y-116681
X83026Y-135731
X93186Y-135731
X218758Y-78581
X228917Y-78581
X152082Y-116681
X162243Y-116681
X247333Y-59531
X257493Y-59531
X285433Y-59531
X295592Y-59531
X228283Y-116681
X238443Y-116681
X133033Y-59531
X143193Y-59531
X59214Y-135731
X69374Y-135731
X90170Y-97631
X100330Y-97631
T9
X152400Y-88106
X66675Y-69056
X328613Y-69056
X228600Y-88106
X328613Y-126206
X76200Y-135731
T10
X224790Y-95091
X231140Y-92551
X96203Y-56991
X102552Y-54451
X134302Y-114141
X140653Y-111601
X108109Y-133191
X114459Y-130651
X148590Y-95091
X154940Y-92551
X239077Y-76041
X245427Y-73501
X267652Y-114141
X274003Y-111601
X305753Y-56991
X312102Y-54451
X67628Y-114141
X73977Y-111601
X124777Y-76041
X131128Y-73501
X77153Y-56991
X83503Y-54451
X115253Y-114141
X121602Y-111601
X65246Y-95091
X71596Y-92551
X129540Y-95091
X135890Y-92551
X262890Y-95091
X269240Y-92551
X267652Y-56991
X274003Y-54451
X324803Y-56991
X331153Y-54451
X248603Y-114141
X254952Y-111601
X210503Y-56991
X216853Y-54451
X96144Y-114141
X102494Y-111601
X84296Y-133191
X90646Y-130651
X220028Y-76041
X226378Y-73501
X153352Y-114141
X159702Y-111601
X248603Y-56991
X254952Y-54451
X286702Y-56991
X293053Y-54451
X229552Y-114141
X235903Y-111601
X134302Y-56991
X140653Y-54451
X60484Y-133191
X66834Y-130651
X91440Y-95091
X97790Y-92551
X277178Y-76041
X283527Y-73501
X258128Y-76041
X264477Y-73501
X305753Y-133191
X312102Y-130651
X181928Y-76041
X188278Y-73501
X172403Y-56991
X178753Y-54451
X296227Y-76041
X302577Y-73501
X286702Y-114141
X293053Y-111601
X167640Y-95091
X173990Y-92551
X281940Y-95091
X288290Y-92551
X312896Y-95091
X319246Y-92551
X320040Y-76041
X326390Y-73501
X143827Y-76041
X150177Y-73501
X186690Y-95091
X193040Y-92551
X191453Y-56991
X197803Y-54451
X172403Y-114141
X178753Y-111601
X210503Y-114141
X216853Y-111601
X229552Y-56991
X235903Y-54451
X243840Y-95091
X250190Y-92551
X324803Y-133191
X331153Y-130651
X62865Y-76041
X69215Y-73501
X205740Y-95091
X212090Y-92551
X286702Y-133191
X293053Y-130651
X162878Y-76041
X169228Y-73501
X324803Y-114141
X331153Y-111601
X105727Y-76041
X112078Y-73501
X153352Y-56991
X159702Y-54451
X58103Y-56991
X64453Y-54451
X200978Y-76041
X207327Y-73501
X191453Y-114141
X197803Y-111601
X115253Y-56991
X121602Y-54451
X179546Y-133191
X185896Y-130651
X110490Y-95091
X116840Y-92551
X305753Y-114141
X312102Y-111601
X86678Y-76041
X93027Y-73501
T11
X59538Y-109696
X83337Y-109696
X304806Y-90646
X328606Y-90646
T12
X133396Y-142751
X233396Y-142751
T13
X228600Y-97631
X100012Y-59531
X138112Y-116681
X111919Y-135731
X152400Y-97631
X242888Y-78581
X271463Y-116681
X309563Y-59531
X71438Y-116681
X128588Y-78581
X80962Y-59531
X119063Y-116681
X69056Y-97631
X133350Y-97631
X59538Y-124936
X83337Y-124936
X266700Y-97631
X271463Y-59531
X328613Y-59531
X252413Y-116681
X214313Y-59531
X304806Y-105886
X328606Y-105886
X99954Y-116681
X88106Y-135731
X223838Y-78581
X157163Y-116681
X252413Y-59531
X290513Y-59531
X233363Y-116681
X138112Y-59531
X64294Y-135731
X95250Y-97631
X280988Y-78581
X261938Y-78581
X309563Y-135731
X185737Y-78581
X176213Y-59531
X300037Y-78581
X290513Y-116681
X171450Y-97631
X285750Y-97631
X316706Y-97631
X323850Y-78581
X147638Y-78581
X190500Y-97631
X195263Y-59531
X176213Y-116681
X214313Y-116681
X233363Y-59531
X247650Y-97631
X328613Y-135731
X66675Y-78581
X209550Y-97631
X290513Y-135731
X166688Y-78581
X328613Y-116681
X109538Y-78581
X157163Y-59531
X61913Y-59531
X204788Y-78581
X195263Y-116681
X119063Y-59531
X183356Y-135731
X114300Y-97631
X309563Y-116681
X90488Y-78581
T14
X133396Y-127511
X233396Y-127511
T2
G00X37213Y-61600
M15
G01X37913Y-61600
M16
G05
G00X37913Y-68600
M15
G01X37213Y-68600
M16
G05
T6
G00X37301Y-117300
M15
G01X37301Y-116000
M16
G05
G00X48501Y-117300
M15
G01X48501Y-116000
M16
G05
T0
M30
